<svg width="786" height="171" viewBox="0 0 786 171" fill="none" xmlns="http://www.w3.org/2000/svg">
<path d="M0 72.8294C0 63.8654 2.73893 56.6461 8.23531 51.1717C13.7224 45.6972 20.9584 42.9554 29.9432 42.9554H129.822L113.138 68.5643H42.7773C39.4925 68.5643 36.9016 69.5244 34.9677 71.4446C33.043 73.3648 32.0807 75.959 32.0807 79.2362V112.314H45.9789C47.4039 112.314 48.6161 111.815 49.6154 110.818L66.7245 91.8284C67.585 90.6929 68.862 90.1205 70.5738 90.1205H113.351V115.729H63.9486C62.2367 115.729 60.9598 116.302 60.0992 117.437L42.9902 136.427C41.9908 137.424 40.7787 137.923 39.3537 137.923H32.0807V171H0V72.8294Z" fill="white"/>
<path d="M492.138 65.1486H508.822C510.247 65.1486 511.459 64.6501 512.458 63.653L529.567 44.6633C530.419 43.5278 531.705 42.9554 533.417 42.9554H562.499C567.635 42.9554 572.409 43.777 576.832 45.4111C581.255 47.0451 585.105 49.3623 588.38 52.3441C591.656 55.3352 594.228 58.8894 596.079 63.016C597.93 67.1426 598.864 71.7677 598.864 76.8821V96.9428C598.864 101.928 598.078 106.479 596.514 110.597C594.941 114.723 592.702 118.277 589.778 121.268C586.854 124.26 583.43 126.641 579.507 128.414C575.583 130.196 571.271 131.23 566.571 131.507L577.267 143.674C578.128 144.809 579.405 145.382 581.117 145.382H599.938V170.991H569.356C567.644 170.991 566.358 170.428 565.507 169.283L533.852 133.224C532.991 132.088 531.779 131.516 530.215 131.516H493.212V170.991H461.131V64.567L492.148 65.1578L492.138 65.1486ZM484.162 105.907H555.652C559.076 105.907 561.778 104.873 563.785 102.814C565.784 100.755 566.774 98.0137 566.774 94.5979V79.2362C566.774 75.9682 565.812 73.3648 563.887 71.4446C561.963 69.5244 559.362 68.5643 556.078 68.5643H526.773C525.061 68.5643 523.775 69.1367 522.924 70.2722L505.814 89.2619C504.815 90.259 503.603 90.7575 502.178 90.7575H493.193V123.41L484.153 105.916L484.162 105.907Z" fill="white"/>
<path d="M651.478 42.9554H740.021C746.868 42.9554 753.142 44.0632 758.842 46.2604C764.542 48.4668 769.391 51.5594 773.388 55.5383C777.376 59.5264 780.476 64.3639 782.687 70.0506C784.899 75.7374 786 81.9965 786 88.8281V125.1C786 131.931 784.899 138.19 782.687 143.877C780.476 149.564 777.376 154.411 773.388 158.389C769.391 162.378 764.542 165.47 758.842 167.667C753.133 169.874 746.868 170.972 740.021 170.972H651.478V42.9554ZM695.319 145.382H732.11C738.522 145.382 743.695 143.425 747.618 139.51C751.541 135.596 753.503 130.436 753.503 124.038V89.8989C753.503 83.5013 751.541 78.3408 747.618 74.4265C743.695 70.5122 738.531 68.5643 732.11 68.5643H683.133V145.825L695.328 145.382H695.319Z" fill="white"/>
<path d="M378.537 42.9646C387.541 42.9646 394.786 45.7065 400.282 51.1901C405.779 56.683 408.527 63.9115 408.527 72.8848V141.071C408.527 150.053 405.779 157.282 400.282 162.765C394.777 168.249 387.531 170.991 378.537 170.991H303.124C294.13 170.991 286.876 168.249 281.379 162.765C275.883 157.282 273.135 150.044 273.135 141.071V65.1855H299.7C301.125 65.1855 302.338 64.687 303.346 63.69L320.483 44.6633C321.334 43.5278 322.62 42.9554 324.342 42.9554H378.547L378.537 42.9646ZM305.271 134.664C305.271 137.941 306.233 140.544 308.167 142.465C310.092 144.385 312.701 145.345 315.986 145.345H365.694C368.979 145.345 371.588 144.385 373.513 142.465C375.438 140.544 376.409 137.941 376.409 134.664V79.3009C376.409 76.0236 375.447 73.4202 373.513 71.5C371.588 69.5798 368.979 68.6105 365.694 68.6105H314.913L305.271 79.3009V134.664ZM314.691 4.9113C314.691 3.48961 315.153 2.31717 316.088 1.38476C317.013 0.461588 318.262 0 319.835 0H329.264C330.689 0 331.864 0.461588 332.799 1.38476C333.724 2.31717 334.187 3.48961 334.187 4.9113V16.451C334.187 18.0204 333.724 19.2298 332.799 20.0883C331.864 20.9469 330.689 21.3715 329.264 21.3715H319.835C318.262 21.3715 317.013 20.9469 316.088 20.0883C315.153 19.239 314.691 18.0296 314.691 16.451V4.9113ZM347.687 4.9113C347.687 3.48961 348.15 2.31717 349.075 1.38476C350.001 0.461588 351.25 0 352.823 0H362.252C363.677 0 364.861 0.461588 365.786 1.38476C366.712 2.31717 367.184 3.48961 367.184 4.9113V16.451C367.184 18.0204 366.721 19.2298 365.786 20.0883C364.861 20.9469 363.677 21.3715 362.252 21.3715H352.823C351.25 21.3715 350.001 20.9469 349.075 20.0883C348.15 19.239 347.687 18.0296 347.687 16.451V4.9113Z" fill="white"/>
<path d="M215.432 34.933H183.351V55.049H215.432V34.933Z" fill="white"/>
<path d="M183.499 65.2132L183.351 170.289L191.235 170.501C193.058 170.548 194.834 169.929 196.213 168.766L212.767 153.09C214.46 151.659 215.441 149.573 215.441 147.385L215.589 65.2132H183.499Z" fill="white"/>
</svg>
