<svg width="679" height="59" viewBox="0 0 679 59" fill="none" xmlns="http://www.w3.org/2000/svg">
<g clip-path="url(#clip0_1_2)">
<path d="M351.288 50.4242V43.8827C351.288 43.8827 351.311 43.7918 351.379 43.7918H352.106C352.106 43.7918 352.197 43.8145 352.197 43.8827V50.4242C352.197 50.4242 352.174 50.515 352.106 50.515H351.379C351.379 50.515 351.288 50.4923 351.288 50.4242Z" fill="white"/>
<path d="M362.282 43.7691H363.009C363.009 43.7691 363.099 43.7918 363.099 43.86V50.4015C363.099 50.4015 363.077 50.4923 363.009 50.4923H362.304C362.304 50.4923 362.214 50.4696 362.191 50.4242L359.193 45.5181C359.193 45.5181 359.193 45.4953 359.17 45.4953C359.17 45.4953 359.17 45.4953 359.17 45.5181V50.4015C359.17 50.4015 359.17 50.4923 359.079 50.4923H358.352C358.352 50.4923 358.261 50.4696 358.261 50.4015V43.86C358.261 43.86 358.284 43.7691 358.352 43.7691H359.056C359.056 43.7691 359.147 43.7918 359.17 43.8372L362.168 48.7434C362.168 48.7434 362.168 48.7661 362.191 48.7661C362.191 48.7661 362.191 48.7661 362.191 48.7434V43.86C362.191 43.86 362.214 43.7691 362.282 43.7691Z" fill="white"/>
<path d="M370.05 50.3106C369.686 50.1289 369.414 49.879 369.232 49.5383C369.028 49.1976 368.937 48.8115 368.937 48.3799V45.8814C368.937 45.4499 369.028 45.0638 369.232 44.723C369.436 44.3823 369.709 44.1325 370.05 43.9508C370.413 43.7691 370.822 43.6782 371.276 43.6782C371.731 43.6782 372.139 43.7691 372.503 43.9508C372.844 44.1325 373.139 44.3823 373.321 44.7003C373.525 45.0183 373.616 45.3817 373.616 45.8133C373.616 45.8133 373.616 45.8814 373.593 45.9042C373.593 45.9042 373.548 45.9269 373.525 45.9269L372.798 45.9723C372.798 45.9723 372.707 45.9496 372.707 45.8814C372.707 45.4499 372.571 45.1092 372.321 44.8593C372.071 44.6095 371.731 44.4732 371.299 44.4732C370.867 44.4732 370.527 44.6095 370.277 44.8593C370.004 45.1092 369.891 45.4499 369.891 45.8587V48.4254C369.891 48.8342 370.027 49.1749 370.277 49.4248C370.527 49.6746 370.89 49.8109 371.299 49.8109C371.708 49.8109 372.071 49.6746 372.321 49.4248C372.571 49.1749 372.707 48.8342 372.707 48.4254C372.707 48.4254 372.73 48.3118 372.798 48.3118L373.525 48.3572C373.525 48.3572 373.616 48.3799 373.616 48.4481C373.616 48.8796 373.525 49.2431 373.321 49.561C373.116 49.879 372.844 50.1289 372.503 50.3106C372.139 50.4923 371.753 50.5832 371.276 50.5832C370.799 50.5832 370.413 50.4923 370.05 50.3106Z" fill="white"/>
<path d="M382.61 49.402C382.883 49.1295 383.019 48.7661 383.019 48.3345V45.995C383.019 45.5407 382.883 45.1773 382.61 44.9048C382.338 44.6322 381.997 44.4959 381.543 44.4959C381.089 44.4959 380.748 44.6322 380.498 44.9048C380.225 45.1773 380.089 45.5407 380.089 45.995V48.3345C380.089 48.7661 380.225 49.1295 380.498 49.402C380.771 49.6746 381.111 49.8109 381.543 49.8109C381.974 49.8109 382.338 49.6746 382.61 49.402ZM380.316 50.3106C379.953 50.1289 379.68 49.8563 379.476 49.4929C379.272 49.1522 379.181 48.7434 379.181 48.2891V45.995C379.181 45.5407 379.272 45.1319 379.476 44.7912C379.68 44.4505 379.953 44.1779 380.316 43.9735C380.68 43.7918 381.089 43.6782 381.566 43.6782C382.043 43.6782 382.451 43.7691 382.815 43.9735C383.178 44.1552 383.451 44.4278 383.655 44.7912C383.86 45.1319 383.95 45.5407 383.95 45.995V48.2891C383.95 48.7434 383.86 49.1522 383.655 49.4929C383.451 49.8336 383.178 50.1062 382.815 50.3106C382.451 50.515 382.043 50.6059 381.566 50.6059C381.089 50.6059 380.68 50.515 380.316 50.3106Z" fill="white"/>
<path d="M390.696 44.6095V46.7673C390.696 46.7673 390.696 46.8127 390.742 46.8127H392.354C392.695 46.8127 392.968 46.7219 393.172 46.5174C393.377 46.313 393.467 46.0405 393.467 45.7225C393.467 45.4045 393.377 45.1092 393.172 44.9048C392.968 44.7004 392.695 44.5868 392.354 44.5868H390.742C390.742 44.5868 390.696 44.5868 390.696 44.6322M393.513 50.4469L392.173 47.5623C392.173 47.5623 392.173 47.5396 392.127 47.5396H390.742C390.742 47.5396 390.696 47.5396 390.696 47.585V50.4242C390.696 50.4242 390.674 50.515 390.606 50.515H389.879C389.879 50.515 389.788 50.4923 389.788 50.4242V43.8827C389.788 43.8827 389.811 43.7918 389.879 43.7918H392.468C392.854 43.7918 393.195 43.8827 393.49 44.0417C393.785 44.2007 394.013 44.4278 394.172 44.7231C394.331 45.0183 394.399 45.3363 394.399 45.7225C394.399 46.1767 394.285 46.5629 394.058 46.8581C393.831 47.1761 393.49 47.3806 393.081 47.4941C393.059 47.4941 393.059 47.5168 393.081 47.5396L394.467 50.4242C394.467 50.4242 394.467 50.4469 394.467 50.4696C394.467 50.515 394.444 50.5377 394.399 50.5377H393.649C393.649 50.5377 393.558 50.515 393.536 50.4696" fill="white"/>
<path d="M403.461 46.5856C403.666 46.3812 403.779 46.0859 403.779 45.7452C403.779 45.4045 403.666 45.1092 403.461 44.8821C403.234 44.6776 402.962 44.5641 402.598 44.5641H400.986C400.986 44.5641 400.94 44.5641 400.94 44.6095V46.8581C400.94 46.8581 400.94 46.9036 400.986 46.9036H402.598C402.939 46.9036 403.234 46.79 403.461 46.5856ZM403.757 44.0189C404.052 44.1779 404.279 44.4051 404.438 44.7004C404.597 44.9956 404.688 45.3363 404.688 45.7225C404.688 46.1086 404.597 46.4493 404.438 46.7219C404.279 47.0171 404.029 47.2443 403.734 47.4033C403.439 47.5623 403.075 47.6531 402.689 47.6531H401.008C401.008 47.6531 400.963 47.6531 400.963 47.6985V50.4242C400.963 50.4242 400.94 50.515 400.872 50.515H400.145C400.145 50.515 400.054 50.4923 400.054 50.4242V43.8827C400.054 43.8827 400.077 43.7918 400.145 43.7918H402.735C403.121 43.7918 403.461 43.8827 403.779 44.0417" fill="white"/>
<path d="M413.478 49.402C413.751 49.1295 413.887 48.7661 413.887 48.3345V45.995C413.887 45.5407 413.751 45.1773 413.478 44.9048C413.206 44.6322 412.865 44.4959 412.411 44.4959C411.956 44.4959 411.616 44.6322 411.366 44.9048C411.093 45.1773 410.957 45.5407 410.957 45.995V48.3345C410.957 48.7661 411.093 49.1295 411.366 49.402C411.638 49.6746 411.979 49.8109 412.411 49.8109C412.842 49.8109 413.206 49.6746 413.478 49.402ZM411.161 50.3106C410.798 50.1289 410.525 49.8563 410.321 49.4929C410.117 49.1522 410.026 48.7434 410.026 48.2891V45.995C410.026 45.5407 410.117 45.1319 410.321 44.7912C410.525 44.4505 410.798 44.1779 411.161 43.9735C411.525 43.7918 411.934 43.6782 412.411 43.6782C412.888 43.6782 413.296 43.7691 413.66 43.9735C414.023 44.1552 414.296 44.4278 414.5 44.7912C414.705 45.1319 414.796 45.5407 414.796 45.995V48.2891C414.796 48.7434 414.705 49.1522 414.5 49.4929C414.296 49.8336 414.023 50.1062 413.66 50.3106C413.296 50.515 412.888 50.6059 412.411 50.6059C411.934 50.6059 411.525 50.515 411.161 50.3106Z" fill="white"/>
<path d="M421.541 44.6095V46.7673C421.541 46.7673 421.541 46.8127 421.587 46.8127H423.2C423.54 46.8127 423.813 46.7219 424.017 46.5174C424.222 46.313 424.313 46.0405 424.313 45.7225C424.313 45.4045 424.222 45.1092 424.017 44.9048C423.813 44.7004 423.54 44.5868 423.2 44.5868H421.587C421.587 44.5868 421.541 44.5868 421.541 44.6322M424.358 50.4469L423.018 47.5623C423.018 47.5623 423.018 47.5396 422.972 47.5396H421.587C421.587 47.5396 421.541 47.5396 421.541 47.585V50.4242C421.541 50.4242 421.519 50.515 421.451 50.515H420.724C420.724 50.515 420.633 50.4923 420.633 50.4242V43.8827C420.633 43.8827 420.656 43.7918 420.724 43.7918H423.313C423.699 43.7918 424.04 43.8827 424.335 44.0417C424.631 44.2007 424.858 44.4278 425.017 44.7231C425.176 45.0183 425.244 45.3363 425.244 45.7225C425.244 46.1767 425.13 46.5629 424.903 46.8581C424.676 47.1761 424.335 47.3806 423.926 47.4941C423.904 47.4941 423.904 47.5168 423.926 47.5396L425.312 50.4242C425.312 50.4242 425.312 50.4469 425.312 50.4696C425.312 50.515 425.289 50.5377 425.244 50.5377H424.494C424.494 50.5377 424.403 50.515 424.381 50.4696" fill="white"/>
<path d="M432.308 48.539C432.308 48.539 432.308 48.539 432.33 48.539H434.534C434.534 48.539 434.556 48.539 434.579 48.539C434.579 48.539 434.579 48.539 434.579 48.5162L433.466 44.9502C433.466 44.9502 433.466 44.9502 433.443 44.9502C433.443 44.9502 433.443 44.9502 433.421 44.9502L432.308 48.5162V48.539ZM435.192 50.4242L434.852 49.3112C434.852 49.3112 434.852 49.2885 434.806 49.2885H432.103C432.103 49.2885 432.081 49.2885 432.058 49.3112L431.717 50.4242C431.717 50.4242 431.649 50.4923 431.604 50.4923H430.831C430.831 50.4923 430.74 50.4469 430.763 50.3788L432.876 43.8372C432.876 43.8372 432.944 43.7691 432.989 43.7691H433.943C433.943 43.7691 434.034 43.7918 434.057 43.8372L436.192 50.3788V50.4242C436.192 50.4242 436.192 50.4923 436.124 50.4923H435.329C435.329 50.4923 435.238 50.4696 435.215 50.4242" fill="white"/>
<path d="M442.665 49.7201H444.164C444.528 49.7201 444.823 49.6065 445.05 49.3793C445.277 49.1522 445.391 48.8569 445.391 48.4708V45.8587C445.391 45.4726 445.277 45.1773 445.05 44.9502C444.823 44.7231 444.528 44.6095 444.142 44.6095H442.642C442.642 44.6095 442.597 44.6095 442.597 44.6549V49.7201C442.597 49.7201 442.597 49.7655 442.642 49.7655M441.711 50.4242V43.8827C441.711 43.8827 441.734 43.7918 441.802 43.7918H444.119C444.778 43.7918 445.323 43.9735 445.709 44.3142C446.095 44.6549 446.299 45.1319 446.299 45.6998V48.5844C446.299 49.1749 446.095 49.6292 445.709 49.9926C445.3 50.3333 444.778 50.515 444.119 50.515H441.802C441.802 50.515 441.711 50.4923 441.711 50.4242Z" fill="white"/>
<path d="M455.294 49.402C455.566 49.1295 455.703 48.7661 455.703 48.3345V45.995C455.703 45.5407 455.566 45.1773 455.294 44.9048C455.021 44.6322 454.681 44.4959 454.226 44.4959C453.772 44.4959 453.431 44.6322 453.182 44.9048C452.909 45.1773 452.773 45.5407 452.773 45.995V48.3345C452.773 48.7661 452.909 49.1295 453.182 49.402C453.454 49.6746 453.795 49.8109 454.226 49.8109C454.658 49.8109 455.021 49.6746 455.294 49.402ZM453 50.3106C452.636 50.1289 452.364 49.8563 452.159 49.4929C451.955 49.1522 451.864 48.7434 451.864 48.2891V45.995C451.864 45.5407 451.955 45.1319 452.159 44.7912C452.364 44.4505 452.636 44.1779 453 43.9735C453.363 43.7918 453.772 43.6782 454.249 43.6782C454.726 43.6782 455.135 43.7691 455.498 43.9735C455.862 44.1552 456.134 44.4278 456.339 44.7912C456.543 45.1319 456.634 45.5407 456.634 45.995V48.2891C456.634 48.7434 456.543 49.1522 456.339 49.4929C456.134 49.8336 455.862 50.1062 455.498 50.3106C455.135 50.515 454.726 50.6059 454.249 50.6059C453.772 50.6059 453.363 50.515 453 50.3106Z" fill="white"/>
<path d="M463.38 44.6095V46.7673C463.38 46.7673 463.38 46.8127 463.425 46.8127H465.038C465.379 46.8127 465.651 46.7219 465.856 46.5174C466.06 46.313 466.151 46.0405 466.151 45.7225C466.151 45.4045 466.06 45.1092 465.856 44.9048C465.651 44.7004 465.379 44.5868 465.038 44.5868H463.425C463.425 44.5868 463.38 44.5868 463.38 44.6322M466.196 50.4469L464.856 47.5623C464.856 47.5623 464.856 47.5396 464.811 47.5396H463.425C463.425 47.5396 463.38 47.5396 463.38 47.585V50.4242C463.38 50.4242 463.357 50.515 463.289 50.515H462.562C462.562 50.515 462.471 50.4923 462.471 50.4242V43.8827C462.471 43.8827 462.494 43.7918 462.562 43.7918H465.152C465.538 43.7918 465.878 43.8827 466.174 44.0417C466.469 44.2007 466.696 44.4278 466.855 44.7231C467.014 45.0183 467.082 45.3363 467.082 45.7225C467.082 46.1767 466.969 46.5629 466.742 46.8581C466.514 47.1761 466.174 47.3806 465.765 47.4941C465.742 47.4941 465.742 47.5168 465.765 47.5396L467.15 50.4242C467.15 50.4242 467.15 50.4469 467.15 50.4696C467.15 50.515 467.128 50.5377 467.082 50.5377H466.333C466.333 50.5377 466.242 50.515 466.219 50.4696" fill="white"/>
<path d="M474.146 48.539C474.146 48.539 474.146 48.539 474.169 48.539H476.372H476.395C476.395 48.539 476.395 48.539 476.395 48.5162L475.282 44.9502C475.282 44.9502 475.282 44.9502 475.259 44.9502C475.259 44.9502 475.259 44.9502 475.236 44.9502L474.123 48.5162V48.539M477.031 50.4242L476.69 49.3112C476.69 49.3112 476.69 49.2885 476.645 49.2885H473.942C473.942 49.2885 473.919 49.2885 473.896 49.3112L473.556 50.4242C473.556 50.4242 473.487 50.4923 473.442 50.4923H472.67C472.67 50.4923 472.579 50.4469 472.602 50.3788L474.714 43.8372C474.714 43.8372 474.782 43.7691 474.828 43.7691H475.782C475.782 43.7691 475.872 43.7918 475.895 43.8372L478.03 50.3788V50.4242C478.03 50.4242 478.03 50.4923 477.962 50.4923H477.167C477.167 50.4923 477.076 50.4696 477.054 50.4242" fill="white"/>
<path d="M287.736 8.35861C287.736 8.35861 287.94 8.22233 288.054 8.22233H291.62C291.756 8.22233 291.847 8.26776 291.961 8.35861C292.051 8.44947 292.097 8.56303 292.097 8.69931V34.9562C292.097 35.0925 292.051 35.2061 291.961 35.2969C291.87 35.3878 291.756 35.4332 291.62 35.4332H288.054C287.918 35.4332 287.804 35.3878 287.736 35.2969C287.645 35.2061 287.6 35.0925 287.6 34.9562V23.8493C287.6 23.713 287.531 23.6449 287.418 23.6449H277.515C277.378 23.6449 277.31 23.713 277.31 23.8493V34.9562C277.31 35.0925 277.265 35.2061 277.174 35.2969C277.083 35.3878 276.97 35.4332 276.856 35.4332H273.29C273.154 35.4332 273.04 35.3878 272.949 35.2969C272.858 35.2061 272.813 35.0925 272.813 34.9562V8.6766C272.813 8.54032 272.858 8.42675 272.949 8.3359C273.04 8.24504 273.154 8.19962 273.29 8.19962H276.856C276.992 8.19962 277.083 8.24504 277.174 8.3359C277.265 8.42675 277.31 8.54032 277.31 8.6766V19.5564C277.31 19.6927 277.378 19.7381 277.515 19.7381H287.418C287.554 19.7381 287.6 19.67 287.6 19.5564V8.6766C287.6 8.54032 287.645 8.42675 287.736 8.3359" fill="white"/>
<path d="M307.451 34.5928C305.975 33.8433 304.816 32.7757 304.021 31.3902C303.204 30.0047 302.795 28.4147 302.795 26.5976V8.6766C302.795 8.54032 302.84 8.42675 302.931 8.3359C303.022 8.24504 303.136 8.19962 303.272 8.19962H306.838C306.974 8.19962 307.088 8.24504 307.179 8.3359C307.27 8.42675 307.315 8.54032 307.315 8.6766V26.6658C307.315 28.1876 307.792 29.4368 308.746 30.3908C309.7 31.3448 310.972 31.8217 312.562 31.8217C314.152 31.8217 315.401 31.3448 316.378 30.3908C317.332 29.4368 317.809 28.1876 317.809 26.6658V8.6766C317.809 8.54032 317.854 8.42675 317.945 8.3359C318.036 8.24504 318.149 8.19962 318.286 8.19962H321.852C321.988 8.19962 322.101 8.24504 322.192 8.3359C322.283 8.42675 322.329 8.54032 322.329 8.6766V26.5976C322.329 28.4147 321.92 30.0047 321.125 31.3902C320.33 32.7757 319.171 33.8433 317.695 34.5928C316.219 35.3424 314.515 35.7285 312.562 35.7285C310.608 35.7285 308.95 35.3424 307.474 34.5928" fill="white"/>
<path d="M351.243 8.22232H354.809C354.945 8.22232 355.059 8.26775 355.15 8.3586C355.241 8.44946 355.286 8.56302 355.286 8.67659V34.9335C355.286 35.0698 355.241 35.1606 355.15 35.2515C355.059 35.3423 354.945 35.3878 354.809 35.3878H351.243C351.107 35.3878 350.993 35.3423 350.902 35.2515C350.811 35.1606 350.766 35.0471 350.766 34.9335V16.4219C350.766 16.4219 350.743 16.2856 350.675 16.2629C350.607 16.2402 350.562 16.2629 350.539 16.3311L345.678 23.7811C345.542 23.9856 345.36 24.0991 345.133 24.0991H343.339C343.112 24.0991 342.93 24.0083 342.794 23.7811L337.91 16.3538C337.91 16.3538 337.842 16.2629 337.774 16.2856C337.706 16.3084 337.683 16.3538 337.683 16.4446V34.9335C337.683 35.0698 337.638 35.1606 337.547 35.2515C337.456 35.3423 337.342 35.3878 337.229 35.3878H333.663C333.526 35.3878 333.436 35.3423 333.345 35.2515C333.254 35.1606 333.208 35.0471 333.208 34.9335V8.67659C333.208 8.54031 333.254 8.44946 333.345 8.3586C333.436 8.26775 333.549 8.22232 333.663 8.22232H337.229C337.456 8.22232 337.638 8.33589 337.774 8.54031L344.111 18.1482C344.111 18.1482 344.202 18.2163 344.27 18.2163C344.338 18.2163 344.361 18.1936 344.383 18.1482L350.721 8.54031C350.857 8.33589 351.039 8.22232 351.266 8.22232" fill="white"/>
<path d="M413.001 8.35861C413.001 8.35861 413.206 8.22233 413.319 8.22233H416.885C417.022 8.22233 417.112 8.26776 417.226 8.35861C417.317 8.44947 417.362 8.56303 417.362 8.69931V34.9562C417.362 35.0925 417.317 35.2061 417.226 35.2969C417.135 35.3878 417.022 35.4332 416.885 35.4332H413.433C413.183 35.4332 413.001 35.3424 412.888 35.1152L401.69 16.7854C401.69 16.7854 401.576 16.6718 401.531 16.6945C401.485 16.6945 401.463 16.7626 401.463 16.8762L401.531 34.9789C401.531 35.1152 401.485 35.2288 401.395 35.3196C401.304 35.4105 401.19 35.4559 401.077 35.4559H397.511C397.374 35.4559 397.261 35.4105 397.193 35.3196C397.102 35.2288 397.056 35.1152 397.056 34.9789V8.6766C397.056 8.54032 397.102 8.42675 397.193 8.3359C397.283 8.24504 397.397 8.19962 397.511 8.19962H400.963C401.213 8.19962 401.395 8.31318 401.508 8.51761L412.66 26.8475C412.66 26.8475 412.774 26.961 412.82 26.9383C412.865 26.9383 412.888 26.8702 412.888 26.7566L412.842 8.65389C412.842 8.51761 412.888 8.40404 412.979 8.31318" fill="white"/>
<path d="M477.417 11.9701C477.417 11.9701 477.213 12.1063 477.076 12.1063H463.834C463.698 12.1063 463.63 12.1745 463.63 12.2881V19.5564C463.63 19.6927 463.698 19.7381 463.834 19.7381H472.738C472.874 19.7381 472.965 19.7835 473.056 19.8744C473.147 19.9652 473.192 20.0788 473.192 20.2151V23.1679C473.192 23.3041 473.147 23.395 473.056 23.4859C472.965 23.5767 472.852 23.6221 472.738 23.6221H463.834C463.698 23.6221 463.63 23.6903 463.63 23.8266V31.322C463.63 31.4583 463.698 31.5265 463.834 31.5265H477.076C477.213 31.5265 477.326 31.5719 477.417 31.6627C477.508 31.7536 477.553 31.8672 477.553 32.0034V34.9562C477.553 35.0925 477.508 35.1834 477.417 35.2969C477.326 35.3878 477.213 35.4332 477.076 35.4332H459.587C459.451 35.4332 459.337 35.3878 459.269 35.2969C459.178 35.2061 459.133 35.0925 459.133 34.9562V8.67659C459.133 8.54031 459.178 8.44946 459.269 8.3586C459.36 8.26775 459.473 8.22232 459.587 8.22232H477.076C477.213 8.22232 477.326 8.26775 477.417 8.3586C477.508 8.44946 477.553 8.56302 477.553 8.67659V11.6294C477.553 11.7656 477.508 11.8792 477.417 11.9701Z" fill="white"/>
<path d="M387.562 34.8654L379.09 8.60845C379.022 8.3586 378.84 8.22232 378.59 8.22232H373.729C373.48 8.22232 373.298 8.3586 373.23 8.60845L364.803 34.8654C364.758 35.0471 364.758 35.1834 364.848 35.2742C364.917 35.3651 365.053 35.4105 365.189 35.4105H369.073C369.323 35.4105 369.505 35.2742 369.573 35.0244L370.845 30.8678L375.229 16.5128L375.297 16.3084L376.024 13.9461C376.024 13.9461 376.092 13.7872 376.137 13.7872C376.183 13.7872 376.228 13.8326 376.251 13.9461L378.545 21.3962L381.475 30.8451C381.475 30.8451 381.475 30.8451 381.498 30.8905L382.769 35.0471C382.838 35.2969 383.019 35.4332 383.269 35.4332H387.153C387.426 35.4332 387.585 35.3196 387.585 35.0925C387.585 35.0244 387.585 34.9562 387.539 34.8881" fill="white"/>
<path d="M449.933 34.8654L441.461 8.60845C441.393 8.3586 441.211 8.22232 440.962 8.22232H436.101C435.851 8.22232 435.669 8.3586 435.601 8.60845L427.175 34.8654C427.129 35.0471 427.129 35.1834 427.22 35.2742C427.288 35.3651 427.424 35.4105 427.561 35.4105H431.445C431.694 35.4105 431.876 35.2742 431.944 35.0244L433.216 30.8678L437.6 16.5128L437.668 16.3084L438.395 13.9461C438.395 13.9461 438.463 13.7872 438.509 13.7872C438.554 13.7872 438.599 13.8326 438.622 13.9461L440.916 21.3962L443.846 30.8451C443.846 30.8451 443.846 30.8451 443.869 30.8905L445.141 35.0471C445.209 35.2969 445.391 35.4332 445.641 35.4332H449.525C449.797 35.4332 449.956 35.3196 449.956 35.0925C449.956 35.0244 449.956 34.9562 449.911 34.8881" fill="white"/>
<path d="M235.744 10.471C235.744 11.4476 234.949 12.2199 233.995 12.2199C233.041 12.2199 232.246 11.4249 232.246 10.471C232.246 9.51699 233.041 8.72202 233.995 8.72202C234.949 8.72202 235.744 9.51699 235.744 10.471Z" fill="white"/>
<path d="M247.147 10.471C247.147 11.4476 246.352 12.2199 245.398 12.2199C244.444 12.2199 243.649 11.4249 243.649 10.471C243.649 9.51699 244.444 8.72202 245.398 8.72202C246.352 8.72202 247.147 9.51699 247.147 10.471Z" fill="white"/>
<path d="M258.571 10.471C258.571 11.4476 257.777 12.2199 256.823 12.2199C255.869 12.2199 255.074 11.4249 255.074 10.471C255.074 9.51699 255.869 8.72202 256.823 8.72202C257.777 8.72202 258.571 9.51699 258.571 10.471Z" fill="white"/>
<path d="M235.744 21.9413C235.744 22.918 234.949 23.6903 233.995 23.6903C233.041 23.6903 232.246 22.8953 232.246 21.9413C232.246 20.9874 233.041 20.1924 233.995 20.1924C234.949 20.1924 235.744 20.9874 235.744 21.9413Z" fill="white"/>
<path d="M247.147 21.9413C247.147 22.918 246.352 23.6903 245.398 23.6903C244.444 23.6903 243.649 22.8953 243.649 21.9413C243.649 20.9874 244.444 20.1924 245.398 20.1924C246.352 20.1924 247.147 20.9874 247.147 21.9413Z" fill="white"/>
<path d="M258.571 21.9413C258.571 22.918 257.777 23.6903 256.823 23.6903C255.869 23.6903 255.074 22.8953 255.074 21.9413C255.074 20.9874 255.869 20.1924 256.823 20.1924C257.777 20.1924 258.571 20.9874 258.571 21.9413Z" fill="white"/>
<path d="M235.744 33.4117C235.744 34.3884 234.949 35.1606 233.995 35.1606C233.041 35.1606 232.246 34.3657 232.246 33.4117C232.246 32.4577 233.041 31.6628 233.995 31.6628C234.949 31.6628 235.744 32.4577 235.744 33.4117Z" fill="white"/>
<path d="M247.147 33.4117C247.147 34.3884 246.352 35.1606 245.398 35.1606C244.444 35.1606 243.649 34.3657 243.649 33.4117C243.649 32.4577 244.444 31.6628 245.398 31.6628C246.352 31.6628 247.147 32.4577 247.147 33.4117Z" fill="white"/>
<path d="M258.571 33.4117C258.571 34.3884 257.777 35.1606 256.823 35.1606C255.869 35.1606 255.074 34.3657 255.074 33.4117C255.074 32.4577 255.869 31.6628 256.823 31.6628C257.777 31.6628 258.571 32.4577 258.571 33.4117Z" fill="white"/>
<path d="M567.953 23.2133C568.839 18.8296 572.655 16.5809 576.221 16.5809C579.787 16.5809 583.058 18.7841 583.944 23.2133H567.953ZM576.221 11.5385C568.544 11.5385 562.139 17.2851 562.139 25.9389C562.139 34.5928 568.612 40.2258 575.994 40.2258C582.013 40.2258 586.828 37.3866 589.077 31.6855L583.989 30.5952C582.081 34.4338 578.992 35.2969 575.994 35.2969C571.996 35.2969 568.317 32.276 567.772 27.2563H589.804V25.2802C589.531 17.1261 583.512 11.5385 576.221 11.5385Z" fill="white"/>
<path d="M649.722 35.2061C644.725 35.2061 640.841 31.64 640.841 25.8935C640.841 20.147 644.725 16.5809 649.722 16.5809C654.219 16.5809 658.649 20.1924 658.649 25.8935C658.649 31.5946 654.219 35.2061 649.722 35.2061ZM658.649 15.4452C656.286 12.9922 652.902 11.5612 648.791 11.5612C641.659 11.5612 635.322 17.3759 635.322 25.9162C635.322 34.4565 641.682 40.2712 648.791 40.2712C652.902 40.2712 656.286 38.8402 658.649 36.3872V39.5216H664.35V12.3108H658.649V15.4452Z" fill="white"/>
<path d="M678.705 0.0454407H673.004V39.4762H678.705V0.0454407Z" fill="white"/>
<path d="M613.812 12.3335H602.342L596.095 16.6263V16.7853H596.141H596.095V39.4762H601.842V16.7853H613.812V12.3335Z" fill="white"/>
<path d="M545.104 12.2199V39.5444H551.032V8.44946H550.873L545.104 12.2199Z" fill="white"/>
<path d="M563.888 2.79376H557.959L551.736 7.94975V8.15417H563.888V2.79376Z" fill="white"/>
<path d="M551.032 2.79376H532.179V8.15417H551.032V2.79376Z" fill="white"/>
<path d="M634.322 12.3335H622.875L616.628 16.6263V16.7853H616.651H616.628V39.4762H622.375V16.7853H634.322V12.3335Z" fill="white"/>
<path d="M546.194 50.9012H545.376V58.6919H546.194V50.9012Z" fill="white"/>
<path d="M557.687 50.9012V58.6919H557.005L552.008 52.3775V58.6919H551.191V50.9012H551.872L556.869 57.2382V50.9012H557.687Z" fill="white"/>
<path d="M563.978 58.2603C563.365 57.9196 562.865 57.4426 562.525 56.8521C562.161 56.2388 562.002 55.5801 562.002 54.8305C562.002 54.081 562.184 53.3996 562.525 52.809C562.865 52.1958 563.365 51.7415 563.978 51.4008C564.614 51.0601 565.296 50.9011 566.068 50.9011C566.636 50.9011 567.181 50.9919 567.681 51.1964C568.18 51.3781 568.589 51.6734 568.93 52.0368L568.407 52.5592C567.794 51.9459 567.022 51.6279 566.091 51.6279C565.477 51.6279 564.91 51.7642 564.41 52.0595C563.91 52.332 563.501 52.7182 563.229 53.2179C562.933 53.7176 562.797 54.2627 562.797 54.876C562.797 55.4892 562.933 56.0344 563.229 56.5113C563.501 57.011 563.91 57.3972 564.41 57.6697C564.91 57.9423 565.477 58.1013 566.091 58.1013C567.022 58.1013 567.794 57.7833 568.407 57.17L568.93 57.6925C568.589 58.0559 568.18 58.3512 567.681 58.5329C567.181 58.7373 566.659 58.8281 566.068 58.8281C565.296 58.8281 564.592 58.6464 563.978 58.3057" fill="white"/>
<path d="M578.038 57.6244C578.538 57.3518 578.924 56.9657 579.196 56.466C579.469 55.9663 579.628 55.4211 579.628 54.8079C579.628 54.1946 579.492 53.6495 579.196 53.1498C578.924 52.6501 578.515 52.2639 578.038 51.9914C577.538 51.7188 576.993 51.5825 576.357 51.5825C575.721 51.5825 575.176 51.7188 574.676 51.9914C574.177 52.2639 573.791 52.6501 573.495 53.1498C573.2 53.6495 573.064 54.1946 573.064 54.8079C573.064 55.4211 573.2 55.9663 573.495 56.466C573.791 56.9657 574.177 57.3518 574.676 57.6244C575.176 57.8969 575.744 58.0332 576.357 58.0332C576.971 58.0332 577.538 57.8969 578.038 57.6244ZM574.268 58.2603C573.632 57.9196 573.155 57.4426 572.791 56.8521C572.45 56.2615 572.269 55.5801 572.269 54.8306C572.269 54.081 572.45 53.3996 572.791 52.8091C573.155 52.2185 573.632 51.7415 574.268 51.4008C574.904 51.0601 575.585 50.8784 576.357 50.8784C577.13 50.8784 577.834 51.0374 578.447 51.4008C579.06 51.7415 579.56 52.2185 579.923 52.8091C580.287 53.4223 580.446 54.1037 580.446 54.8533C580.446 55.6028 580.264 56.2843 579.923 56.8748C579.56 57.4881 579.083 57.9423 578.447 58.283C577.834 58.6238 577.13 58.7827 576.357 58.7827C575.585 58.7827 574.881 58.601 574.268 58.2603Z" fill="white"/>
<path d="M589.418 55.0123C589.826 54.6716 590.031 54.1946 590.031 53.5813C590.031 52.9681 589.826 52.4684 589.418 52.1277C589.009 51.787 588.418 51.628 587.646 51.628H585.579V55.5347H587.646C588.418 55.5347 589.009 55.3757 589.418 55.0123ZM590.076 58.6919L588.305 56.1934C588.1 56.1934 587.896 56.2161 587.691 56.2161H585.602V58.6919H584.784V50.9011H587.691C588.691 50.9011 589.463 51.1283 590.031 51.6052C590.599 52.0822 590.871 52.7409 590.871 53.5586C590.871 54.1719 590.712 54.6716 590.417 55.1031C590.099 55.512 589.667 55.83 589.1 56.0117L591.008 58.6919H590.099H590.076Z" fill="white"/>
<path d="M599.911 55.0123C600.32 54.6716 600.524 54.1946 600.524 53.5813C600.524 52.9681 600.32 52.4684 599.911 52.1277C599.502 51.787 598.912 51.628 598.139 51.628H596.073V55.5347H598.139C598.912 55.5347 599.502 55.3757 599.911 55.035M600.502 51.628C601.07 52.1049 601.342 52.7636 601.342 53.5813C601.342 54.399 601.07 55.0577 600.502 55.5347C599.934 56.0117 599.162 56.2388 598.162 56.2388H596.073V58.6919H595.255V50.9011H598.162C599.162 50.9011 599.934 51.1283 600.502 51.6052" fill="white"/>
<path d="M610.746 57.6244C611.245 57.3518 611.631 56.9657 611.904 56.466C612.177 55.9663 612.336 55.4211 612.336 54.8079C612.336 54.1946 612.199 53.6495 611.904 53.1498C611.631 52.6501 611.223 52.2639 610.746 51.9914C610.246 51.7188 609.701 51.5825 609.065 51.5825C608.429 51.5825 607.884 51.7188 607.384 51.9914C606.884 52.2639 606.498 52.6501 606.203 53.1498C605.908 53.6495 605.771 54.1946 605.771 54.8079C605.771 55.4211 605.908 55.9663 606.203 56.466C606.498 56.9657 606.884 57.3518 607.384 57.6244C607.884 57.8969 608.452 58.0332 609.065 58.0332C609.678 58.0332 610.246 57.8969 610.746 57.6244ZM606.998 58.2603C606.362 57.9196 605.885 57.4426 605.521 56.8521C605.181 56.2615 604.999 55.5801 604.999 54.8306C604.999 54.081 605.181 53.3996 605.521 52.8091C605.885 52.2185 606.362 51.7415 606.998 51.4008C607.634 51.0601 608.315 50.8784 609.088 50.8784C609.86 50.8784 610.564 51.0374 611.177 51.4008C611.79 51.7415 612.29 52.2185 612.654 52.8091C613.017 53.4223 613.176 54.1037 613.176 54.8533C613.176 55.6028 612.994 56.2843 612.654 56.8748C612.29 57.4881 611.813 57.9423 611.177 58.283C610.564 58.6238 609.86 58.7827 609.088 58.7827C608.315 58.7827 607.611 58.601 606.998 58.2603Z" fill="white"/>
<path d="M622.125 55.0123C622.534 54.6716 622.738 54.1946 622.738 53.5813C622.738 52.9681 622.534 52.4684 622.125 52.1277C621.716 51.787 621.126 51.628 620.353 51.628H618.286V55.5347H620.353C621.126 55.5347 621.716 55.3757 622.125 55.0123ZM622.784 58.6919L621.012 56.1934C620.808 56.1934 620.603 56.2161 620.399 56.2161H618.309V58.6919H617.491V50.9011H620.399C621.398 50.9011 622.171 51.1283 622.738 51.6052C623.306 52.0822 623.579 52.7409 623.579 53.5586C623.579 54.1719 623.42 54.6716 623.124 55.1031C622.806 55.512 622.375 55.83 621.807 56.0117L623.715 58.6919H622.806H622.784Z" fill="white"/>
<path d="M632.551 55.9436L630.688 51.7643L628.826 55.9436H632.573H632.551ZM632.846 56.625H628.508L627.576 58.7146H626.713L630.279 50.9239H631.097L634.663 58.7146H633.8L632.869 56.625H632.846Z" fill="white"/>
<path d="M641.523 57.9877C642.204 57.9877 642.795 57.8515 643.317 57.5789C643.839 57.3063 644.226 56.9429 644.498 56.4659C644.771 55.9889 644.93 55.4438 644.93 54.8078C644.93 54.1718 644.793 53.6267 644.498 53.1497C644.226 52.6728 643.817 52.2866 643.317 52.0141C642.795 51.7415 642.204 51.6052 641.523 51.6052H639.229V57.965H641.523V57.9877ZM638.388 50.9011H641.568C642.386 50.9011 643.113 51.0601 643.749 51.4008C644.385 51.7415 644.862 52.1958 645.225 52.7863C645.566 53.3769 645.747 54.0583 645.747 54.8078C645.747 55.5574 645.566 56.2388 645.225 56.8293C644.884 57.4199 644.385 57.8742 643.749 58.2149C643.113 58.5556 642.386 58.7146 641.568 58.7146H638.388V50.9238V50.9011Z" fill="white"/>
<path d="M655.105 57.6244C655.605 57.3518 655.991 56.9657 656.264 56.466C656.536 55.9663 656.695 55.4211 656.695 54.8079C656.695 54.1946 656.559 53.6495 656.264 53.1498C655.991 52.6501 655.582 52.2639 655.105 51.9914C654.606 51.7188 654.061 51.5825 653.425 51.5825C652.789 51.5825 652.244 51.7188 651.744 51.9914C651.244 52.2639 650.858 52.6501 650.563 53.1498C650.267 53.6495 650.131 54.1946 650.131 54.8079C650.131 55.4211 650.267 55.9663 650.563 56.466C650.858 56.9657 651.244 57.3518 651.744 57.6244C652.244 57.8969 652.811 58.0332 653.425 58.0332C654.038 58.0332 654.606 57.8969 655.105 57.6244ZM651.335 58.2603C650.699 57.9196 650.222 57.4426 649.859 56.8521C649.518 56.2615 649.336 55.5801 649.336 54.8306C649.336 54.081 649.518 53.3996 649.859 52.8091C650.222 52.2185 650.699 51.7415 651.335 51.4008C651.971 51.0601 652.652 50.8784 653.425 50.8784C654.197 50.8784 654.901 51.0374 655.514 51.4008C656.128 51.7415 656.627 52.2185 656.991 52.8091C657.354 53.4223 657.513 54.1037 657.513 54.8533C657.513 55.6028 657.331 56.2843 656.991 56.8748C656.627 57.4881 656.15 57.9423 655.514 58.283C654.901 58.6238 654.197 58.7827 653.425 58.7827C652.652 58.7827 651.948 58.601 651.335 58.2603Z" fill="white"/>
<path d="M666.485 55.0123C666.894 54.6716 667.098 54.1946 667.098 53.5813C667.098 52.9681 666.894 52.4684 666.485 52.1277C666.076 51.787 665.485 51.628 664.713 51.628H662.646V55.5347H664.713C665.485 55.5347 666.076 55.3757 666.485 55.0123ZM667.144 58.6919L665.372 56.1934C665.167 56.1934 664.963 56.2161 664.759 56.2161H662.669V58.6919H661.851V50.9011H664.759C665.758 50.9011 666.53 51.1283 667.098 51.6052C667.666 52.0822 667.939 52.7409 667.939 53.5586C667.939 54.1719 667.78 54.6716 667.484 55.1031C667.166 55.512 666.735 55.83 666.167 56.0117L668.075 58.6919H667.166H667.144Z" fill="white"/>
<path d="M676.888 55.9436L675.025 51.7643L673.163 55.9436H676.91H676.888ZM677.206 56.625H672.867L671.936 58.7146H671.073L674.639 50.9239H675.457L679.023 58.7146H678.16L677.228 56.625H677.206Z" fill="white"/>
<path d="M41.2025 16.6036L42.4745 15.1045C44.3597 16.8081 46.1541 17.6712 48.6753 17.6712C51.1965 17.6712 52.6956 16.3765 52.6956 14.5821V14.5367C52.6956 12.8559 51.787 11.9019 47.9939 11.0842C43.8373 10.1757 41.9293 8.8356 41.9293 5.86012V5.81469C41.9293 2.97549 44.4278 0.863129 47.8576 0.863129C50.4924 0.863129 52.3776 1.61268 54.2174 3.08906L53.0363 4.6563C51.3555 3.29348 49.6747 2.68022 47.8349 2.68022C45.4954 2.68022 43.9963 3.97489 43.9963 5.61027V5.6557C43.9963 7.35921 44.9275 8.31318 48.9024 9.1763C52.9227 10.0621 54.7852 11.5385 54.7852 14.3096V14.355C54.7852 17.4668 52.1959 19.4883 48.6071 19.4883C45.7452 19.4883 43.383 18.5343 41.2252 16.5809" fill="white"/>
<path d="M41.8158 16.5584C43.86 18.2846 46.0178 19.0796 48.6071 19.0796C52.0369 19.0796 54.3537 17.1944 54.3537 14.3779C54.3537 11.834 52.741 10.4712 48.8115 9.60804C44.8821 8.76764 43.5647 7.76824 43.5647 5.67859C43.5647 3.58894 45.3591 2.27155 47.8349 2.27155C49.7201 2.27155 51.3555 2.83939 52.9681 4.06593L53.6495 3.1801C51.9006 1.86271 50.1517 1.29487 47.903 1.29487C44.7004 1.29487 42.3836 3.20281 42.3836 5.81487C42.3836 8.42694 43.9281 9.76704 48.1074 10.6756C51.8097 11.4706 53.1498 12.47 53.1498 14.5369C53.1498 16.6038 51.31 18.1029 48.698 18.1029C46.3585 18.1029 44.496 17.3988 42.5426 15.718L41.8385 16.5584H41.8158ZM48.5844 19.9427C45.6544 19.9427 43.2013 18.9888 40.9072 16.9445L40.5892 16.672L42.4063 14.5142L42.7243 14.8095C44.655 16.5584 46.3585 17.2625 48.6298 17.2625C50.7876 17.2625 52.2186 16.195 52.2186 14.605C52.2186 13.3558 51.9006 12.3791 47.8576 11.5387C44.019 10.6983 41.4523 9.42633 41.4523 5.88301C41.4523 2.72583 44.1325 0.454468 47.8121 0.454468C50.4242 0.454468 52.4003 1.15859 54.4218 2.77125L54.7398 3.0211L53.0363 5.29246L52.6956 5.0199C51.1283 3.74794 49.5611 3.15738 47.744 3.15738C45.7225 3.15738 44.3143 4.1795 44.3143 5.65588C44.3143 6.90513 44.655 7.90452 48.8797 8.81307C53.2407 9.76704 55.1032 11.4251 55.1032 14.3552C55.1032 17.6714 52.4003 19.9654 48.5163 19.9654" fill="white"/>
<path d="M74.2507 10.2438V10.1984C74.2507 6.08724 71.2525 2.72563 67.1187 2.72563C62.9848 2.72563 60.0547 6.04181 60.0547 10.153V10.1984C60.0547 14.3096 63.0529 17.6712 67.1868 17.6712C71.3207 17.6712 74.2507 14.355 74.2507 10.2438ZM57.9424 10.2438V10.1984C57.9424 5.20141 61.6901 0.817688 67.1868 0.817688C72.6835 0.817688 76.3631 5.13327 76.3631 10.1303V10.1757C76.3631 15.1727 72.6154 19.5564 67.1187 19.5564C61.622 19.5564 57.9424 15.2408 57.9424 10.2438Z" fill="white"/>
<path d="M67.1187 3.13448C63.3255 3.13448 60.4636 6.15539 60.4636 10.1303C60.4636 14.1051 63.3483 17.2396 67.1641 17.2396C70.98 17.2396 73.8192 14.2187 73.8192 10.2438V10.1984C73.8192 6.1781 70.9346 3.13448 67.1187 3.13448ZM67.1869 18.1027C62.9621 18.1027 59.6459 14.6276 59.6459 10.1984C59.6459 5.76926 62.8713 2.29408 67.1414 2.29408C71.4116 2.29408 74.6823 5.76926 74.6823 10.1984V10.2438C74.6823 14.7184 71.457 18.1027 67.1869 18.1027ZM67.1869 1.24926C62.2353 1.24926 58.374 5.17871 58.374 10.1984V10.2438C58.374 15.309 62.1444 19.1476 67.1414 19.1476C72.1384 19.1476 75.9543 15.2181 75.9543 10.1984C75.9543 5.17871 72.1838 1.24926 67.1869 1.24926ZM67.1187 19.988C61.6447 19.988 57.5109 15.8087 57.5109 10.2438V10.1984C57.5109 4.70172 61.7583 0.386139 67.1869 0.386139C72.6154 0.386139 76.7947 4.58815 76.7947 10.1303C76.7947 15.6724 72.5473 19.988 67.1187 19.988Z" fill="white"/>
<path d="M80.2245 11.6748V1.13568H82.2687V11.5385C82.2687 15.4452 84.3584 17.6485 87.7881 17.6485C91.2179 17.6485 93.2394 15.627 93.2394 11.6748V1.13568H95.2836V11.5158C95.2836 16.7853 92.2627 19.5337 87.7427 19.5337C83.2227 19.5337 80.2245 16.7853 80.2245 11.6521" fill="white"/>
<path d="M80.6332 1.54453V11.6521C80.6332 16.3084 83.2907 19.1021 87.7199 19.1021C92.149 19.1021 94.8292 16.3311 94.8292 11.4931V1.54453H93.6481V11.6521C93.6481 15.7178 91.5131 18.0573 87.788 18.0573C84.063 18.0573 81.8371 15.6042 81.8371 11.5158V1.54453H80.656H80.6332ZM87.7199 19.9653C82.8137 19.9653 79.7928 16.7854 79.7928 11.6748V0.704132H82.6775V11.5385C82.6775 15.15 84.54 17.2169 87.7653 17.2169C90.9906 17.2169 92.785 15.2408 92.785 11.6748V0.704132H95.6696V11.5158C95.6696 16.8081 92.6942 19.9653 87.6972 19.9653" fill="white"/>
<path d="M98.7133 16.6036L99.9852 15.1045C101.87 16.8081 103.665 17.6712 106.186 17.6712C108.707 17.6712 110.206 16.3765 110.206 14.5821V14.5367C110.206 12.8559 109.298 11.9019 105.505 11.0842C101.348 10.1757 99.4401 8.8356 99.4401 5.86012V5.81469C99.4401 2.97549 101.939 0.863129 105.368 0.863129C108.003 0.863129 109.888 1.61268 111.728 3.08906L110.547 4.6563C108.866 3.29348 107.185 2.68022 105.346 2.68022C103.006 2.68022 101.507 3.97489 101.507 5.61027V5.6557C101.507 7.35921 102.438 8.31318 106.413 9.1763C110.433 10.0621 112.296 11.5385 112.296 14.3096V14.355C112.296 17.4668 109.707 19.4883 106.118 19.4883C103.256 19.4883 100.894 18.5343 98.736 16.5809" fill="white"/>
<path d="M99.3265 16.5582C101.371 18.2845 103.529 19.0794 106.118 19.0794C109.548 19.0794 111.864 17.1942 111.864 14.3777C111.864 11.8338 110.252 10.471 106.322 9.60786C102.416 8.76746 101.075 7.76806 101.075 5.67841C101.075 3.58876 102.87 2.27137 105.346 2.27137C107.231 2.27137 108.866 2.83921 110.479 4.06574L111.16 3.17991C109.411 1.86253 107.662 1.29469 105.414 1.29469C102.211 1.29469 99.8944 3.20263 99.8944 5.81469C99.8944 8.42675 101.439 9.76686 105.618 10.6754C109.343 11.4704 110.661 12.4698 110.661 14.5367C110.661 16.6036 108.821 18.1027 106.209 18.1027C103.869 18.1027 102.007 17.3986 100.053 15.7178L99.3492 16.5582H99.3265ZM106.095 19.9425C103.165 19.9425 100.712 18.9886 98.418 16.9443L98.1 16.6718L99.9171 14.514L100.235 14.8093C102.166 16.5582 103.869 17.2623 106.141 17.2623C108.298 17.2623 109.729 16.1948 109.729 14.6048C109.729 13.3556 109.411 12.3789 105.368 11.5385C101.53 10.6981 98.9631 9.42615 98.9631 5.88283C98.9631 2.72564 101.643 0.454285 105.323 0.454285C107.935 0.454285 109.911 1.15841 111.933 2.77107L112.251 3.02092L110.547 5.29228L110.206 5.01972C108.639 3.74775 107.072 3.1572 105.255 3.1572C103.233 3.1572 101.825 4.17931 101.825 5.6557C101.825 6.90494 102.166 7.90434 106.39 8.81288C110.751 9.76686 112.614 11.4249 112.614 14.355C112.614 17.6712 109.888 19.9653 106.027 19.9653" fill="white"/>
<path d="M64.7565 25.9616H66.6644L78.0666 40.4983V25.9616H80.0427V44.0871H78.4073L66.7553 29.2324V44.0871H64.7565V25.9616Z" fill="white"/>
<path d="M78.6344 43.6555H79.6338V26.3932H78.4981V41.7249L66.4826 26.3932H65.2107V43.6555H66.3463V27.9831L78.6571 43.6555H78.6344ZM80.4742 44.5186H78.2028L67.164 30.4589V44.5186H64.3248V25.5301H66.8688L77.6123 39.2491V25.5301H80.4515V44.5186H80.4742Z" fill="white"/>
<path d="M87.0158 27.8468V42.2018H91.2405C95.8059 42.2018 98.736 39.0901 98.736 35.0698V35.0243C98.736 31.004 95.8286 27.8468 91.2405 27.8468H87.0158ZM84.9716 25.9616H91.2405C96.9189 25.9616 100.848 29.8683 100.848 34.9789V35.0243C100.848 40.1349 96.9189 44.0871 91.2405 44.0871H84.9716V25.9616Z" fill="white"/>
<path d="M87.4474 41.7703H91.2633C95.4198 41.7703 98.3272 39.0219 98.3272 35.0698C98.3272 31.1176 95.4198 28.2784 91.2633 28.2784H87.4474V41.7703ZM91.2405 42.6334H86.5843V27.438H91.2405C95.8287 27.438 99.1449 30.6406 99.1449 35.0471C99.1449 39.4535 95.8968 42.6561 91.2405 42.6561M85.4031 43.6555H91.2405C96.5555 43.6555 100.417 40.0213 100.417 35.0243C100.417 30.0274 96.5555 26.3932 91.2405 26.3932H85.4031V43.6555ZM91.2405 44.5186H84.54V25.5301H91.2405C97.0552 25.5301 101.257 29.5049 101.257 34.9789C101.257 40.4529 97.0325 44.5186 91.2405 44.5186Z" fill="white"/>
<path d="M112.569 35.206C115.272 35.206 117.225 33.7978 117.225 31.481V31.4356C117.225 29.2097 115.521 27.8696 112.614 27.8696H107.049V35.2288H112.591L112.569 35.206ZM104.982 25.9616H112.75C114.976 25.9616 116.748 26.643 117.884 27.7787C118.769 28.6645 119.269 29.9365 119.269 31.3447V31.3902C119.269 34.3883 117.202 36.16 114.363 36.6824L119.905 44.0871H117.407L112.16 37.0458H107.004V44.0871H104.96V25.9616H104.982Z" fill="white"/>
<path d="M107.435 34.7745H112.569C115.135 34.7745 116.793 33.4798 116.793 31.481C116.793 29.4822 115.271 28.2784 112.591 28.2784H107.435V34.7745ZM112.569 35.6376H106.595V27.438H112.591C115.703 27.438 117.634 28.9598 117.634 31.4356C117.634 33.9114 115.589 35.6376 112.569 35.6376ZM117.634 43.6555H119.065L113.613 36.3872L114.295 36.2509C117.202 35.7285 118.86 33.9568 118.86 31.3902C118.86 30.0501 118.406 28.8917 117.588 28.074C116.498 26.9837 114.794 26.3932 112.75 26.3932H105.414V43.6555H106.595V36.6143H112.387L117.634 43.6555ZM120.768 44.5186H117.202L111.955 37.4774H107.435V44.5186H104.551V25.5301H112.75C114.999 25.5301 116.952 26.2115 118.179 27.4607C119.155 28.4374 119.701 29.8229 119.701 31.3447C119.701 34.1612 117.997 36.2054 115.112 36.955L120.768 44.5186Z" fill="white"/>
<path d="M53.1498 25.8253H51.2419L45.2001 39.2037L46.2222 41.4977L48.0393 37.432L48.5617 36.2736V36.2509L52.1731 28.2103L55.2622 35.1606L56.2616 37.432L57.0566 39.2945H57.0793L59.1916 44.0871H61.3722L53.1498 25.8253Z" fill="white"/>
<path d="M59.4641 43.6555H60.7134L52.8545 26.2569H51.4917L45.6543 39.2037L46.1994 40.4302L47.3578 37.8408L52.1504 27.1427L56.9202 37.8408H56.8975L59.4641 43.6328V43.6555ZM62.0535 44.5186H58.919L55.6028 37.0004L52.1504 29.2551L46.2221 42.5426L44.723 39.2037L50.9465 25.3938H53.3996L62.0308 44.4959L62.0535 44.5186Z" fill="white"/>
<path d="M145.708 27.8468V42.2018H149.932C154.498 42.2018 157.428 39.0901 157.428 35.0698V35.0243C157.428 31.004 154.521 27.8468 149.932 27.8468H145.708ZM143.663 25.9616H149.932C155.611 25.9616 159.54 29.8683 159.54 34.9789V35.0243C159.54 40.1349 155.611 44.0871 149.932 44.0871H143.663V25.9616Z" fill="white"/>
<path d="M146.139 41.7703H149.955C154.112 41.7703 157.019 39.0219 157.019 35.0698C157.019 31.1176 154.112 28.2784 149.955 28.2784H146.139V41.7703ZM149.955 42.6334H145.299V27.438H149.955C154.543 27.438 157.859 30.6406 157.859 35.0471C157.859 39.4535 154.611 42.6561 149.955 42.6561M144.095 43.6555H149.932C155.247 43.6555 159.109 40.0213 159.109 35.0243C159.109 30.0274 155.247 26.3932 149.932 26.3932H144.095V43.6555ZM149.955 44.5186H143.255V25.5301H149.955C155.77 25.5301 159.972 29.5049 159.972 34.9789C159.972 40.4529 155.747 44.5186 149.955 44.5186Z" fill="white"/>
<path d="M163.674 25.9616H176.734V27.8242H165.718V34.025H175.576V35.8875H165.718V42.2246H176.871V44.0871H163.674V25.9616Z" fill="white"/>
<path d="M164.106 43.6555H176.439V42.6561H165.287V35.4559H175.144V34.4565H165.287V27.4153H176.303V26.4159H164.083V43.6782L164.106 43.6555ZM177.302 44.5186H163.265V25.5301H177.166V28.2557H166.15V33.5934H176.008V36.319H166.15V41.8157H177.302V44.5413V44.5186Z" fill="white"/>
<path d="M16.6718 22.0095C15.9677 22.6909 15.3317 23.4404 14.7866 24.3035C11.5158 29.2551 11.8111 35.524 15.0364 40.0668C15.7406 39.3854 16.3765 38.6131 16.9217 37.7727C20.1924 32.8438 19.8971 26.5522 16.6718 22.0095Z" fill="white"/>
<path d="M38.1589 44.1098L18.7388 0H26.098L45.4954 44.1098H38.1589Z" fill="white"/>
<path d="M12.4698 31.2539C12.3108 32.2306 11.9473 33.1846 11.3568 34.0704C9.42614 36.9777 5.76925 38.0226 2.6802 36.7733L0 42.8833C5.11056 45.041 11.0615 43.9281 15.0364 40.0441C13.2193 37.4774 12.3108 34.3657 12.4925 31.2539" fill="white"/>
<path d="M34.1839 20.5331C34.1839 20.5331 34.0704 20.4422 34.0022 20.3968C28.4601 16.7172 21.2599 17.5349 16.6718 21.9868C18.4888 24.5534 19.3747 27.6651 19.2157 30.7996C19.3747 29.8229 19.7381 28.869 20.3059 27.9831C22.5091 24.667 26.9837 23.7584 30.2772 25.9616C30.3453 26.0071 30.4135 26.0525 30.4589 26.0979L34.1385 20.5331H34.1839Z" fill="white"/>
<path d="M119.337 12.606L119.86 11.4249L123.471 3.38432L126.56 10.3347L127.582 12.606H127.56L128.377 14.4685L130.49 19.2611H132.693L124.448 0.99939H122.54L114.318 19.2611H116.384L119.337 12.606Z" fill="white"/>
<path d="M130.762 18.8296H132.011L124.153 1.43096H122.79L114.954 18.8296H116.089L118.679 13.0376L123.471 2.3395L128.241 13.0376H128.218L130.785 18.8296H130.762ZM133.352 19.67H130.217L126.901 12.1518L123.448 4.40644L116.634 19.67H113.636L122.267 0.567841H124.72L133.352 19.67Z" fill="white"/>
<path d="M126.946 37.432L127.469 36.2736V36.2509L131.08 28.2103L134.169 35.1606L135.191 37.432H135.169L135.964 39.2945H135.986L138.099 44.0871H140.302L132.057 25.8253H130.149L121.904 44.0871H123.993L126.946 37.432Z" fill="white"/>
<path d="M138.371 43.6555H139.62L131.762 26.2569H130.399L122.563 43.6555H123.698L126.288 37.8636L131.08 27.1655L135.85 37.8636H135.827L138.394 43.6555H138.371ZM140.961 44.5186H137.826L134.51 37.0004L131.057 29.2551L124.243 44.5186H121.245L129.854 25.4165H132.307L140.938 44.5186H140.961Z" fill="white"/>
<path d="M53.3997 52.9227C53.1952 52.6728 52.9681 52.4684 52.6728 52.3321C52.3776 52.1958 52.0596 52.1277 51.7416 52.1277C51.3554 52.1277 50.992 52.1958 50.6967 52.3548C50.3788 52.4911 50.1062 52.6955 49.9018 52.9454C49.6746 53.1952 49.5156 53.4905 49.3794 53.8312C49.2658 54.1719 49.1977 54.5353 49.1977 54.9215C49.1977 55.2849 49.2431 55.6256 49.3794 55.9436C49.4929 56.2616 49.6519 56.5568 49.8791 56.8067C50.1062 57.0565 50.356 57.2382 50.674 57.3972C50.992 57.5335 51.3554 57.6017 51.7416 57.6017C52.1277 57.6017 52.4911 57.5108 52.7864 57.3518C53.0817 57.1928 53.3315 56.9657 53.5359 56.6704L54.3309 57.261C54.3309 57.261 54.1946 57.4427 54.0584 57.5789C53.9221 57.7152 53.7631 57.8515 53.5359 57.9878C53.3315 58.1241 53.059 58.2376 52.7637 58.3285C52.4684 58.4193 52.105 58.4875 51.7189 58.4875C51.1737 58.4875 50.674 58.3739 50.2425 58.1695C49.8109 57.9651 49.4248 57.6925 49.1295 57.3518C48.8115 57.0111 48.5844 56.625 48.4254 56.2161C48.2664 55.7846 48.1755 55.353 48.1755 54.9215C48.1755 54.399 48.2664 53.8993 48.4481 53.4451C48.6298 52.9908 48.8569 52.6047 49.1749 52.2867C49.4929 51.9687 49.8563 51.6961 50.3106 51.5144C50.7422 51.3327 51.2419 51.2419 51.7643 51.2419C52.2186 51.2419 52.6501 51.3327 53.1044 51.5144C53.5359 51.6961 53.8994 51.946 54.1719 52.3094L53.3997 52.8999V52.9227Z" fill="white"/>
<path d="M51.7643 51.5826C51.2873 51.5826 50.833 51.6734 50.4242 51.8324C50.0381 51.9914 49.6973 52.2185 49.4021 52.5138C49.1295 52.8091 48.9024 53.1725 48.7434 53.5813C48.5844 53.9902 48.4935 54.4445 48.4935 54.9442C48.4935 55.3303 48.5617 55.7391 48.7207 56.1253C48.8569 56.5114 49.0841 56.8521 49.3566 57.1701C49.6292 57.4654 49.9699 57.7152 50.3788 57.9196C50.7649 58.1014 51.2192 58.1922 51.7189 58.1922C52.0823 58.1922 52.4003 58.1468 52.6501 58.0559C52.9227 57.9651 53.1498 57.8515 53.3542 57.7379C53.5359 57.6244 53.6949 57.5108 53.8085 57.3745C53.8085 57.3745 53.8085 57.3745 53.8312 57.3518L53.5814 57.1701C53.3997 57.3745 53.1725 57.5562 52.9227 57.6925C52.582 57.8742 52.1731 57.9651 51.7189 57.9651C51.2646 57.9651 50.8557 57.8742 50.515 57.7152C50.1516 57.5562 49.8563 57.3291 49.6065 57.0565C49.3566 56.784 49.1749 56.466 49.0387 56.1026C48.9024 55.7391 48.8569 55.353 48.8569 54.9669C48.8569 54.5353 48.9251 54.1265 49.0614 53.7631C49.1976 53.3769 49.4021 53.0362 49.6519 52.7637C49.9018 52.4684 50.2198 52.2412 50.5605 52.0823C50.9239 51.9233 51.31 51.8324 51.7416 51.8324C52.105 51.8324 52.4684 51.9005 52.8091 52.0595C53.059 52.1731 53.2634 52.3094 53.4451 52.4911L53.6949 52.2867C53.4905 52.0823 53.2634 51.946 52.9681 51.8324C52.582 51.6734 52.1731 51.6053 51.7643 51.6053M51.7189 58.8055C51.1283 58.8055 50.5832 58.6919 50.1062 58.4648C49.6292 58.2376 49.2204 57.9424 48.9024 57.5789C48.5617 57.2155 48.3118 56.784 48.1301 56.3297C47.9484 55.8754 47.8575 55.3984 47.8575 54.9215C47.8575 54.3536 47.9484 53.8085 48.1301 53.3315C48.3118 52.8318 48.5844 52.423 48.9251 52.0595C49.2658 51.6961 49.6973 51.4236 50.1743 51.2191C50.6513 51.0147 51.1737 50.9239 51.7416 50.9239C52.2413 50.9239 52.7183 51.0147 53.1952 51.2191C53.6949 51.4236 54.1038 51.7188 54.3991 52.1277L54.6035 52.4002L53.3088 53.3769L53.1044 53.1271C52.9454 52.9227 52.741 52.7637 52.4911 52.6501C52.2413 52.5365 51.9914 52.4684 51.6961 52.4684C51.3554 52.4684 51.0602 52.5365 50.7876 52.6501C50.515 52.7864 50.2879 52.9454 50.0835 53.1725C49.9018 53.3996 49.7428 53.6495 49.6292 53.9675C49.5156 54.2628 49.4702 54.6035 49.4702 54.9442C49.4702 55.2622 49.5156 55.5801 49.6292 55.8527C49.7201 56.1253 49.8791 56.3978 50.0835 56.6023C50.2652 56.8067 50.4923 56.9884 50.7649 57.102C51.0374 57.2382 51.3554 57.2837 51.7189 57.2837C52.0823 57.2837 52.3548 57.2155 52.6047 57.0792C52.8545 56.943 53.0817 56.7385 53.2634 56.4887L53.4678 56.2161L54.7625 57.1928L54.5808 57.4427C54.5808 57.4427 54.4218 57.6244 54.2855 57.7834C54.1492 57.9424 53.9448 58.0786 53.7176 58.2376C53.4678 58.3739 53.1952 58.5102 52.8772 58.6238C52.5365 58.7373 52.1504 58.7828 51.7416 58.7828" fill="white"/>
<path d="M62.6667 58.4875C62.1443 58.4875 61.6674 58.3966 61.2131 58.2149C60.7815 58.0332 60.3954 57.7833 60.0774 57.4426C59.7594 57.1019 59.5096 56.7385 59.3506 56.2842C59.1689 55.8527 59.078 55.3757 59.078 54.8533C59.078 54.3309 59.1689 53.8766 59.3506 53.4223C59.5323 52.9908 59.7821 52.6046 60.0774 52.2639C60.3954 51.946 60.7588 51.6961 61.2131 51.4917C61.6674 51.2873 62.1443 51.2191 62.6667 51.2191C63.1892 51.2191 63.6661 51.31 64.1204 51.4917C64.552 51.6734 64.9381 51.9232 65.2561 52.2639C65.5741 52.5819 65.8239 52.9681 65.9829 53.4223C66.1646 53.8539 66.2555 54.3309 66.2555 54.8533C66.2555 55.3757 66.1646 55.8527 65.9829 56.2842C65.8012 56.7158 65.5514 57.1019 65.2561 57.4426C64.9608 57.7833 64.5747 58.0332 64.1204 58.2149C63.6889 58.3966 63.1892 58.4875 62.6667 58.4875ZM62.6667 57.6016C63.0529 57.6016 63.4163 57.5335 63.7343 57.3745C64.0523 57.2155 64.3248 57.0338 64.552 56.7839C64.7791 56.5341 64.9608 56.2388 65.0744 55.9208C65.188 55.5801 65.2561 55.2394 65.2561 54.8533C65.2561 54.4672 65.188 54.1265 65.0744 53.7858C64.9608 53.4451 64.7791 53.1498 64.552 52.9226C64.3248 52.6728 64.0523 52.4911 63.7343 52.3321C63.4163 52.1958 63.0529 52.1049 62.6667 52.1049C62.2806 52.1049 61.9172 52.1731 61.5992 52.3321C61.2812 52.4684 61.0087 52.6728 60.7815 52.9226C60.5544 53.1725 60.3727 53.4678 60.2591 53.7858C60.1455 54.1265 60.0774 54.4672 60.0774 54.8533C60.0774 55.2394 60.1455 55.5801 60.2591 55.9208C60.3727 56.2615 60.5544 56.5341 60.7815 56.7839C61.0087 57.0338 61.2812 57.2155 61.5992 57.3745C61.9172 57.5108 62.2806 57.6016 62.6667 57.6016Z" fill="white"/>
<path d="M62.6667 52.4457C62.326 52.4457 62.0081 52.5138 61.7355 52.6274C61.4629 52.7637 61.2131 52.9226 61.0314 53.1498C60.8269 53.3542 60.6907 53.6268 60.5771 53.8993C60.4635 54.1946 60.4181 54.5126 60.4181 54.8533C60.4181 55.194 60.4635 55.512 60.5771 55.8073C60.6907 56.1025 60.8269 56.3524 61.0314 56.5568C61.2358 56.784 61.4629 56.9429 61.7355 57.0792C62.0081 57.2155 62.326 57.2609 62.6667 57.2609C63.0074 57.2609 63.3254 57.1928 63.598 57.0792C63.8706 56.9657 64.1204 56.784 64.3021 56.5795C64.5065 56.3751 64.6428 56.1025 64.7564 55.83C64.87 55.5347 64.9154 55.2167 64.9154 54.876C64.9154 54.5353 64.87 54.2173 64.7564 53.922C64.6428 53.6268 64.5065 53.3769 64.3021 53.1725C64.0977 52.9454 63.8706 52.7864 63.598 52.6501C63.3254 52.5138 63.0074 52.4684 62.6667 52.4684M62.6667 57.9423C62.2352 57.9423 61.8263 57.8515 61.4629 57.6925C61.0995 57.5335 60.8042 57.3064 60.5544 57.0338C60.3045 56.7612 60.1001 56.4205 59.9638 56.0571C59.8275 55.6937 59.7594 55.2849 59.7594 54.876C59.7594 54.4672 59.8275 54.0583 59.9638 53.6949C60.1001 53.3088 60.3045 52.9908 60.5544 52.7182C60.8042 52.4457 61.1222 52.2185 61.4629 52.0595C61.8263 51.9005 62.2352 51.8097 62.6667 51.8097C63.0983 51.8097 63.5072 51.9005 63.8706 52.0595C64.234 52.2185 64.5293 52.4457 64.7791 52.7182C65.029 52.9908 65.2334 53.3315 65.3697 53.6949C65.5059 54.0583 65.5741 54.4672 65.5741 54.876C65.5741 55.2849 65.5059 55.6937 65.3697 56.0571C65.2334 56.4205 65.029 56.7612 64.7791 57.0338C64.5293 57.3064 64.2113 57.5335 63.8706 57.6925C63.5072 57.8515 63.0983 57.9423 62.6667 57.9423ZM62.6667 51.5825C62.1898 51.5825 61.7355 51.6734 61.3494 51.8324C60.9405 51.9914 60.5998 52.2185 60.3272 52.5138C60.0547 52.8091 59.8275 53.1498 59.6686 53.5586C59.5096 53.9675 59.4187 54.399 59.4187 54.8533C59.4187 55.3076 59.5096 55.7618 59.6686 56.1707C59.8275 56.5795 60.0547 56.9202 60.3272 57.2155C60.5998 57.5108 60.9405 57.7379 61.3494 57.8969C61.7582 58.0559 62.1898 58.1468 62.6667 58.1468C63.1437 58.1468 63.5753 58.0559 63.9841 57.8969C64.393 57.7379 64.7337 57.4881 65.0062 57.2155C65.2788 56.9202 65.5059 56.5795 65.6649 56.1707C65.8239 55.7618 65.9148 55.3303 65.9148 54.8533C65.9148 54.3763 65.8239 53.9448 65.6649 53.5359C65.5059 53.1498 65.2788 52.7864 65.0062 52.4911C64.7337 52.1958 64.393 51.9687 63.9841 51.8097C63.598 51.6507 63.1437 51.5598 62.6667 51.5598M62.6667 58.8055C62.0989 58.8055 61.5765 58.7146 61.0995 58.5102C60.6225 58.3058 60.2137 58.0332 59.8503 57.6698C59.5096 57.3291 59.237 56.8975 59.0553 56.4205C58.8736 55.9436 58.76 55.4211 58.76 54.876C58.76 54.3309 58.8509 53.8085 59.0553 53.3315C59.2597 52.8545 59.5096 52.4229 59.8503 52.0822C60.191 51.7188 60.6225 51.4463 61.0995 51.2418C61.5765 51.0374 62.0989 50.9466 62.6667 50.9466C63.2346 50.9466 63.757 51.0601 64.234 51.2418C64.711 51.4463 65.1425 51.7188 65.4832 52.0822C65.8239 52.4457 66.0965 52.8545 66.2782 53.3315C66.4599 53.8085 66.5735 54.3309 66.5735 54.876C66.5735 55.4211 66.4826 55.9436 66.2782 56.4205C66.0965 56.8975 65.8239 57.3291 65.4832 57.6698C65.1425 58.0332 64.7337 58.3058 64.234 58.5102C63.757 58.7146 63.2346 58.8055 62.6667 58.8055Z" fill="white"/>
<path d="M76.6584 51.4236V57.0792H76.6357L72.8652 51.4236H71.6387V58.3058H72.5699V52.6501H72.5926L76.4085 58.3058H77.5896V51.4236H76.6584Z" fill="white"/>
<path d="M76.5902 57.9878H77.2716V51.7643H76.9991V57.4199H76.4994L76.3858 57.2837L72.7062 51.7643H71.9794V57.9878H72.2519V52.3321H72.7516L72.8652 52.4684L76.5902 57.9878ZM77.9076 58.6465H76.2268L72.8879 53.6949V58.6465H71.298V51.1056H73.0242L76.3177 56.0571V51.1056H77.9076V58.6465Z" fill="white"/>
<path d="M83.6314 56.8748C83.7904 57.1247 84.0175 57.3064 84.2674 57.4427C84.5399 57.5562 84.7898 57.6244 85.085 57.6244C85.244 57.6244 85.403 57.6016 85.562 57.5562C85.721 57.5108 85.88 57.4427 85.9936 57.3291C86.1299 57.2382 86.2434 57.1019 86.3116 56.9657C86.4024 56.8294 86.4479 56.6704 86.4479 56.466C86.4479 56.1934 86.357 55.989 86.198 55.8527C86.039 55.7164 85.8119 55.6029 85.562 55.512C85.3122 55.4211 85.0396 55.3303 84.7443 55.2394C84.4491 55.1486 84.1765 55.035 83.9267 54.876C83.6768 54.717 83.4724 54.5126 83.2907 54.24C83.1317 53.9675 83.0408 53.6268 83.0408 53.1725C83.0408 52.9681 83.0863 52.7637 83.1771 52.5365C83.268 52.3094 83.4042 52.105 83.586 51.9233C83.7677 51.7415 84.0175 51.5825 84.3128 51.4463C84.6081 51.31 84.9488 51.2646 85.3803 51.2646C85.7665 51.2646 86.1072 51.31 86.4479 51.4236C86.7886 51.5371 87.0838 51.7415 87.3564 52.0595L86.6069 52.7409C86.4933 52.5592 86.3343 52.423 86.1072 52.3094C85.9027 52.1958 85.6529 52.1504 85.3803 52.1504C85.1078 52.1504 84.9033 52.1731 84.7443 52.2412C84.5626 52.3094 84.4264 52.4002 84.3355 52.5138C84.2219 52.6274 84.1538 52.7409 84.1084 52.8545C84.0629 52.9681 84.0402 53.0816 84.0402 53.1952C84.0402 53.4905 84.1311 53.7176 84.2901 53.8766C84.4491 54.0356 84.6762 54.1492 84.9261 54.2627C85.1759 54.3536 85.4485 54.4445 85.7437 54.5353C86.039 54.6035 86.3116 54.717 86.5614 54.8533C86.8113 54.9896 87.0157 55.194 87.1747 55.4211C87.3337 55.6483 87.4246 55.989 87.4246 56.3978C87.4246 56.7385 87.3564 57.0338 87.2428 57.2837C87.1066 57.5562 86.9476 57.7834 86.7431 57.9424C86.5387 58.1241 86.2662 58.2603 85.9936 58.3512C85.6983 58.4421 85.403 58.4875 85.0623 58.4875C84.6308 58.4875 84.1992 58.4193 83.8131 58.2603C83.427 58.1013 83.109 57.8742 82.8818 57.5335L83.6541 56.8748H83.6314Z" fill="white"/>
<path d="M83.3134 57.5789C83.4724 57.7379 83.6769 57.8742 83.9267 57.9651C84.2674 58.1014 84.6535 58.1695 85.0624 58.1695C85.3577 58.1695 85.6302 58.1241 85.8801 58.0332C86.1299 57.9424 86.3571 57.8288 86.5388 57.6698C86.7205 57.5108 86.8568 57.3291 86.9703 57.102C87.0839 56.8748 87.1293 56.625 87.1293 56.3524C87.1293 56.0117 87.0612 55.7391 86.9476 55.5574C86.8113 55.353 86.6296 55.194 86.4252 55.0804C86.1981 54.9442 85.9482 54.8533 85.6757 54.7852C85.3804 54.717 85.0851 54.6262 84.8352 54.5126C84.54 54.399 84.3128 54.24 84.1084 54.081C83.8586 53.8539 83.745 53.5586 83.745 53.1725C83.745 53.0362 83.7677 52.8999 83.8359 52.7409C83.904 52.5592 83.9948 52.4002 84.1311 52.264C84.2674 52.1277 84.4264 52.0141 84.6535 51.9233C84.858 51.8324 85.1078 51.787 85.4258 51.787C85.7438 51.787 86.0391 51.8551 86.3116 51.9914C86.4479 52.0595 86.5842 52.1504 86.6751 52.2412L86.9249 52.0141C86.7659 51.8778 86.5842 51.7643 86.4025 51.7188C86.0845 51.628 85.7665 51.5826 85.4258 51.5826C85.0624 51.5826 84.7444 51.628 84.4945 51.7415C84.2447 51.8551 84.0176 51.9914 83.8813 52.1504C83.7223 52.3094 83.6087 52.4684 83.5406 52.6501C83.4724 52.8318 83.427 53.0135 83.427 53.1725C83.427 53.5586 83.4951 53.8539 83.6314 54.0583C83.7677 54.2855 83.9494 54.4445 84.1538 54.5807C84.381 54.717 84.6308 54.8306 84.8807 54.9215C85.176 55.0123 85.4712 55.1032 85.7211 55.194C86.0164 55.3076 86.2435 55.4439 86.4479 55.6029C86.6069 55.7391 86.8113 55.989 86.8113 56.466C86.8113 56.7158 86.7432 56.943 86.6296 57.1247C86.5161 57.3064 86.3798 57.4427 86.2208 57.5789C86.0618 57.6925 85.8801 57.7834 85.6757 57.8515C85.1305 58.0105 84.6308 57.9424 84.1538 57.7379C83.9494 57.6471 83.7677 57.5108 83.6087 57.3518L83.3362 57.5789H83.3134ZM85.0624 58.8055C84.5854 58.8055 84.1311 58.7146 83.6996 58.5556C83.2453 58.3739 82.8819 58.1014 82.6093 57.7152L82.4276 57.4654L83.6996 56.3751L83.904 56.6931C84.0403 56.8975 84.1993 57.0338 84.4037 57.1247C84.6308 57.2155 84.858 57.2837 85.0851 57.2837C85.1987 57.2837 85.335 57.2837 85.4712 57.2155C85.6075 57.1701 85.7211 57.1247 85.8119 57.0565C85.9028 56.9884 85.9936 56.8975 86.0391 56.784C86.0845 56.6931 86.1299 56.5795 86.1299 56.466C86.1299 56.2388 86.0618 56.148 85.9936 56.1026C85.8574 55.989 85.6757 55.8981 85.4485 55.8073C85.2214 55.7164 84.9488 55.6256 84.6535 55.5347C84.3356 55.4439 84.0403 55.3076 83.7677 55.1259C83.4724 54.9442 83.2226 54.6943 83.0409 54.399C82.8365 54.081 82.7456 53.6722 82.7456 53.1498C82.7456 52.8999 82.791 52.6501 82.9046 52.4002C83.0182 52.1277 83.1772 51.8778 83.3816 51.6734C83.6087 51.4463 83.8813 51.2646 84.1993 51.1283C84.5173 50.992 84.9261 50.9239 85.3804 50.9239C85.7892 50.9239 86.1753 50.992 86.5388 51.0829C86.9476 51.1964 87.311 51.4463 87.6063 51.8097L87.8107 52.0595L86.5388 53.2179L86.3343 52.8999C86.2435 52.7637 86.1299 52.6728 85.9709 52.5819C85.8119 52.4911 85.6075 52.4457 85.4031 52.4457C85.1987 52.4457 85.017 52.4684 84.8807 52.5138C84.7444 52.5592 84.6535 52.6274 84.5854 52.6955C84.5173 52.7637 84.4718 52.8318 84.4491 52.9227C84.4264 53.0135 84.4037 53.1044 84.4037 53.1498C84.4037 53.3542 84.4491 53.4905 84.5627 53.5813C84.699 53.6949 84.8807 53.8085 85.0851 53.8993C85.3349 53.9902 85.5848 54.081 85.8574 54.1492C86.1754 54.24 86.4706 54.3536 86.7432 54.5126C87.0385 54.6716 87.2883 54.8987 87.47 55.1713C87.6744 55.4666 87.788 55.8527 87.788 56.3297C87.788 56.6931 87.7199 57.0565 87.5609 57.3745C87.4019 57.6925 87.2202 57.9424 86.9703 58.1468C86.7205 58.3512 86.4252 58.5102 86.1072 58.6238C85.7892 58.7373 85.4485 58.7828 85.0851 58.7828" fill="white"/>
<path d="M92.1036 51.4236V52.3094H94.3296V58.3058H95.2608V52.3094H97.464V51.4236H92.1036Z" fill="white"/>
<path d="M94.6476 57.9878H94.9201V51.9687H97.1233V51.7415H92.4216V51.9687H94.6248V57.9878H94.6476ZM95.5788 58.6465H93.9889V52.6274H91.7856V51.1056H97.782V52.6274H95.5788V58.6465Z" fill="white"/>
<path d="M102.529 51.4236H104.937C105.368 51.4236 105.732 51.4917 106.027 51.6053C106.322 51.7188 106.527 51.8778 106.708 52.0595C106.867 52.2413 106.981 52.4457 107.049 52.6728C107.117 52.9 107.14 53.1271 107.14 53.3315C107.14 53.5359 107.095 53.7631 107.026 53.9675C106.958 54.1719 106.845 54.3536 106.686 54.5126C106.549 54.6716 106.368 54.8079 106.163 54.9215C105.959 55.035 105.709 55.1032 105.459 55.1259L107.413 58.2604H106.254L104.505 55.2167H103.46V58.2604H102.529V51.3781V51.4236ZM103.46 54.4672H104.687C104.869 54.4672 105.05 54.4672 105.232 54.4218C105.414 54.3763 105.573 54.3309 105.709 54.2628C105.845 54.1946 105.959 54.0811 106.05 53.9221C106.141 53.7858 106.186 53.5814 106.186 53.3542C106.186 53.1271 106.141 52.9227 106.05 52.7864C105.959 52.6501 105.868 52.5365 105.709 52.4457C105.573 52.3775 105.414 52.3094 105.232 52.2867C105.05 52.264 104.869 52.2413 104.687 52.2413H103.46V54.4672Z" fill="white"/>
<path d="M103.778 54.1267H104.664C104.823 54.1267 104.982 54.1267 105.141 54.0813C105.278 54.0813 105.414 54.0131 105.505 53.9677C105.596 53.9223 105.664 53.8541 105.709 53.7633C105.755 53.6724 105.8 53.5361 105.8 53.3544C105.8 53.1727 105.777 53.0364 105.709 52.9456C105.664 52.8547 105.573 52.7866 105.505 52.7184C105.391 52.6503 105.278 52.6276 105.141 52.6049C104.982 52.5822 104.823 52.5594 104.664 52.5594H103.778V54.1267ZM104.664 54.7854H103.12V51.9235H104.664C104.869 51.9235 105.073 51.9235 105.255 51.9689C105.459 52.0143 105.664 52.0825 105.845 52.1733C106.027 52.2869 106.186 52.4232 106.3 52.6276C106.413 52.832 106.481 53.0591 106.481 53.3544C106.481 53.6497 106.436 53.8995 106.3 54.0813C106.186 54.2857 106.027 54.422 105.845 54.5355C105.664 54.6264 105.482 54.6945 105.255 54.7399C105.073 54.7627 104.869 54.7854 104.664 54.7854ZM106.413 57.988H106.799L104.891 54.8989L105.414 54.8535C105.641 54.8535 105.823 54.7854 106.004 54.6718C106.186 54.581 106.322 54.4674 106.436 54.3311C106.549 54.1948 106.64 54.0358 106.708 53.8768C106.777 53.7178 106.799 53.5361 106.799 53.3544C106.799 53.1727 106.777 52.991 106.708 52.7866C106.663 52.6049 106.572 52.4459 106.436 52.2869C106.3 52.1506 106.118 52.0143 105.891 51.9235C105.641 51.8099 105.323 51.7645 104.937 51.7645H102.847V57.988H103.12V54.9444H104.664L106.413 57.988ZM107.98 58.6467H106.05L104.301 55.6031H103.778V58.6467H102.188V51.1058H104.937C105.414 51.1058 105.823 51.1739 106.141 51.3102C106.459 51.4465 106.731 51.6282 106.936 51.8553C107.14 52.0825 107.276 52.3323 107.344 52.6049C107.413 52.8547 107.458 53.1273 107.458 53.3544C107.458 53.6043 107.413 53.8541 107.322 54.104C107.231 54.3538 107.095 54.5582 106.936 54.7627C106.777 54.9444 106.549 55.1261 106.322 55.2624C106.209 55.3078 106.095 55.3759 105.982 55.3986L108.003 58.6467H107.98Z" fill="white"/>
<path d="M113.318 51.4236V55.6483C113.318 55.8527 113.341 56.0798 113.409 56.307C113.477 56.5341 113.568 56.7385 113.704 56.943C113.841 57.1474 114.022 57.3064 114.227 57.4199C114.454 57.5562 114.726 57.6017 115.044 57.6017C115.362 57.6017 115.635 57.5335 115.862 57.4199C116.089 57.3064 116.271 57.1474 116.384 56.943C116.521 56.7385 116.612 56.5341 116.68 56.307C116.725 56.0798 116.771 55.8527 116.771 55.6483V51.4236H117.702V55.7846C117.702 56.1934 117.634 56.5568 117.497 56.8748C117.361 57.1928 117.179 57.4881 116.93 57.7152C116.68 57.9651 116.407 58.1468 116.089 58.2603C115.771 58.3966 115.408 58.4421 115.044 58.4421C114.681 58.4421 114.317 58.3739 114 58.2603C113.682 58.1241 113.409 57.9424 113.159 57.7152C112.932 57.4654 112.728 57.1928 112.591 56.8748C112.455 56.5568 112.387 56.1707 112.387 55.7846V51.4236H113.318Z" fill="white"/>
<path d="M112.705 51.7643V55.8073C112.705 56.1707 112.773 56.4887 112.887 56.784C113 57.0793 113.159 57.3291 113.386 57.5335C113.591 57.7379 113.841 57.8969 114.113 58.0105C114.386 58.1241 114.704 58.1922 115.044 58.1922C115.385 58.1922 115.68 58.1241 115.976 58.0105C116.248 57.8969 116.498 57.7379 116.702 57.5335C116.907 57.3291 117.066 57.0793 117.202 56.784C117.316 56.5114 117.384 56.1707 117.384 55.8073V51.7643H117.111V55.6483C117.111 55.8981 117.066 56.148 117.02 56.3978C116.952 56.6704 116.839 56.9203 116.68 57.1474C116.521 57.3745 116.294 57.579 116.044 57.7152C115.771 57.8742 115.453 57.9424 115.067 57.9424C114.681 57.9424 114.363 57.8742 114.09 57.7152C113.841 57.579 113.613 57.3745 113.454 57.1474C113.295 56.9203 113.182 56.6704 113.114 56.3978C113.046 56.148 113.023 55.8981 113.023 55.6483V51.7643H112.75H112.705ZM115.044 58.8055C114.635 58.8055 114.227 58.7373 113.886 58.5784C113.523 58.4421 113.205 58.2149 112.932 57.9424C112.659 57.6698 112.455 57.3518 112.296 56.9884C112.137 56.625 112.069 56.2161 112.069 55.7619V51.0602H113.659V55.6029C113.659 55.7846 113.682 55.989 113.727 56.1934C113.772 56.3751 113.863 56.5568 113.977 56.7158C114.09 56.8748 114.227 56.9884 114.408 57.102C114.567 57.1928 114.794 57.2382 115.067 57.2382C115.34 57.2382 115.544 57.1928 115.726 57.102C115.907 57.0111 116.044 56.8748 116.157 56.7158C116.271 56.5568 116.362 56.3751 116.407 56.1934C116.453 55.989 116.475 55.8073 116.475 55.6029V51.0602H118.065V55.7619C118.065 56.2161 117.997 56.625 117.838 56.9884C117.679 57.3518 117.475 57.6698 117.202 57.9424C116.93 58.2149 116.612 58.4194 116.248 58.5784C115.885 58.7146 115.499 58.8055 115.09 58.8055" fill="white"/>
<path d="M122.631 51.4236V52.3094H124.834V58.3058H125.765V52.3094H127.991V51.4236H122.631Z" fill="white"/>
<path d="M125.175 57.9878H125.447V51.9687H127.65V51.7415H122.949V51.9687H125.152V57.9878H125.175ZM126.083 58.6465H124.493V52.6274H122.29V51.1056H128.286V52.6274H126.083V58.6465Z" fill="white"/>
<path d="M136.191 58.4875C135.668 58.4875 135.191 58.3966 134.737 58.2149C134.305 58.0332 133.919 57.7834 133.601 57.4427C133.283 57.102 133.033 56.7386 132.874 56.2843C132.693 55.8527 132.602 55.3757 132.602 54.8533C132.602 54.3309 132.693 53.8766 132.874 53.4224C133.056 52.9908 133.306 52.6047 133.601 52.264C133.919 51.946 134.283 51.6961 134.737 51.4917C135.191 51.2873 135.668 51.2191 136.191 51.2191C136.713 51.2191 137.19 51.31 137.644 51.4917C138.099 51.6734 138.462 51.9233 138.78 52.264C139.098 52.582 139.348 52.9681 139.507 53.4224C139.689 53.8539 139.779 54.3309 139.779 54.8533C139.779 55.3757 139.689 55.8527 139.507 56.2843C139.325 56.7158 139.075 57.102 138.78 57.4427C138.462 57.7607 138.099 58.0332 137.644 58.2149C137.213 58.3966 136.713 58.4875 136.191 58.4875ZM136.191 57.6017C136.577 57.6017 136.94 57.5335 137.258 57.3745C137.576 57.2155 137.849 57.0338 138.076 56.784C138.303 56.5341 138.485 56.2389 138.598 55.9209C138.712 55.5802 138.78 55.2395 138.78 54.8533C138.78 54.4672 138.712 54.1265 138.598 53.7858C138.485 53.4451 138.303 53.1498 138.076 52.9227C137.849 52.6728 137.576 52.4911 137.258 52.3321C136.94 52.1958 136.577 52.105 136.191 52.105C135.805 52.105 135.441 52.1731 135.123 52.3321C134.805 52.4684 134.533 52.6728 134.305 52.9227C134.078 53.1725 133.897 53.4678 133.783 53.7858C133.669 54.1265 133.601 54.4672 133.601 54.8533C133.601 55.2395 133.669 55.5802 133.783 55.9209C133.897 56.2616 134.078 56.5341 134.305 56.784C134.533 57.0338 134.805 57.2155 135.123 57.3745C135.441 57.5108 135.805 57.6017 136.191 57.6017Z" fill="white"/>
<path d="M136.191 52.4457C135.85 52.4457 135.532 52.5138 135.259 52.6274C134.987 52.7637 134.737 52.9227 134.555 53.1498C134.351 53.3542 134.215 53.6268 134.101 53.8994C133.987 54.1946 133.942 54.5126 133.942 54.8533C133.942 55.194 133.987 55.512 134.101 55.8073C134.215 56.1026 134.351 56.3524 134.555 56.5568C134.76 56.784 134.987 56.943 135.259 57.0793C135.532 57.2155 135.85 57.261 136.191 57.261C136.531 57.261 136.849 57.1928 137.122 57.0793C137.394 56.943 137.644 56.784 137.826 56.5568C138.03 56.3524 138.167 56.0799 138.28 55.8073C138.394 55.512 138.439 55.194 138.439 54.8533C138.439 54.5126 138.394 54.1946 138.28 53.8994C138.167 53.6041 138.03 53.3542 137.826 53.1271C137.622 52.9 137.394 52.741 137.122 52.6047C136.849 52.4684 136.531 52.423 136.191 52.423M136.191 57.9424C135.759 57.9424 135.35 57.8515 134.987 57.6925C134.623 57.5335 134.328 57.3064 134.078 57.0338C133.828 56.7613 133.624 56.4433 133.488 56.0572C133.351 55.6937 133.283 55.2849 133.283 54.876C133.283 54.4672 133.351 54.0584 133.488 53.6949C133.624 53.3088 133.828 52.9908 134.078 52.7183C134.328 52.4457 134.646 52.2186 134.987 52.0596C135.35 51.9006 135.759 51.8097 136.191 51.8097C136.622 51.8097 137.031 51.9006 137.394 52.0596C137.758 52.2186 138.053 52.4457 138.303 52.7183C138.553 52.9908 138.757 53.3315 138.894 53.6949C139.03 54.0584 139.098 54.4672 139.098 54.876C139.098 55.2849 139.03 55.6937 138.894 56.0572C138.757 56.4206 138.553 56.7613 138.303 57.0338C138.053 57.3064 137.735 57.5335 137.394 57.6925C137.031 57.8515 136.622 57.9424 136.191 57.9424ZM136.191 51.5826C135.714 51.5826 135.259 51.6734 134.873 51.8324C134.464 51.9914 134.124 52.2186 133.851 52.5138C133.579 52.8091 133.351 53.1498 133.192 53.5587C133.033 53.9675 132.943 54.3991 132.943 54.8533C132.943 55.3076 133.033 55.7619 133.192 56.1707C133.351 56.5796 133.579 56.9203 133.851 57.2155C134.124 57.5108 134.464 57.738 134.873 57.897C135.282 58.0559 135.714 58.1468 136.191 58.1468C136.668 58.1468 137.099 58.0559 137.508 57.897C137.894 57.738 138.258 57.5108 138.53 57.2155C138.803 56.9203 139.03 56.5796 139.189 56.1707C139.348 55.7619 139.439 55.3303 139.439 54.8533C139.439 54.3763 139.348 53.9448 139.189 53.5359C139.03 53.1271 138.803 52.7864 138.53 52.4911C138.258 52.1958 137.917 51.9687 137.508 51.8097C137.122 51.6507 136.668 51.5599 136.191 51.5599M136.191 58.8055C135.623 58.8055 135.1 58.7146 134.623 58.5102C134.146 58.3058 133.738 58.0332 133.374 57.6698C133.033 57.3291 132.761 56.8976 132.579 56.4206C132.397 55.9436 132.284 55.4212 132.284 54.876C132.284 54.3309 132.375 53.8085 132.579 53.3315C132.784 52.8545 133.033 52.423 133.374 52.0823C133.715 51.7189 134.146 51.4463 134.623 51.2419C135.1 51.0374 135.623 50.9466 136.191 50.9466C136.759 50.9466 137.281 51.0602 137.758 51.2419C138.235 51.4463 138.666 51.7189 139.007 52.0823C139.348 52.4457 139.62 52.8545 139.802 53.3315C139.984 53.8085 140.097 54.3309 140.097 54.876C140.097 55.4212 140.007 55.9436 139.802 56.4206C139.62 56.8976 139.348 57.3291 139.007 57.6698C138.666 58.0332 138.258 58.3058 137.781 58.5102C137.304 58.7146 136.781 58.8055 136.213 58.8055" fill="white"/>
<path d="M145.162 51.4236H147.57C148.002 51.4236 148.365 51.4917 148.66 51.6053C148.933 51.7188 149.16 51.8778 149.342 52.0595C149.501 52.2413 149.614 52.4457 149.682 52.6728C149.751 52.9 149.773 53.1271 149.773 53.3315C149.773 53.5359 149.728 53.7631 149.66 53.9675C149.592 54.1719 149.478 54.3536 149.319 54.5126C149.183 54.6716 149.001 54.8079 148.797 54.9215C148.592 55.035 148.342 55.1032 148.093 55.1259L150.046 58.2604H148.888L147.139 55.2167H146.094V58.2604H145.162V51.3781V51.4236ZM146.094 54.4672H147.32C147.502 54.4672 147.684 54.4672 147.865 54.4218C148.047 54.399 148.206 54.3309 148.342 54.2628C148.479 54.1946 148.592 54.0811 148.683 53.9221C148.774 53.7858 148.797 53.5814 148.797 53.3542C148.797 53.1271 148.751 52.9227 148.683 52.7864C148.592 52.6501 148.479 52.5365 148.342 52.4457C148.206 52.3775 148.047 52.3094 147.865 52.2867C147.684 52.264 147.502 52.2413 147.32 52.2413H146.094V54.4672Z" fill="white"/>
<path d="M146.434 54.1265H147.32C147.479 54.1265 147.638 54.1265 147.797 54.0811C147.934 54.0811 148.07 54.0129 148.161 53.9675C148.252 53.9221 148.32 53.8539 148.365 53.7631C148.411 53.6722 148.456 53.5359 148.456 53.3542C148.456 53.1725 148.433 53.0362 148.365 52.9454C148.32 52.8545 148.229 52.7637 148.161 52.7183C148.047 52.6501 147.934 52.6274 147.797 52.6047C147.638 52.582 147.479 52.5593 147.32 52.5593H146.434V54.1265ZM147.32 54.7852H145.776V51.9233H147.32C147.525 51.9233 147.729 51.9233 147.911 51.9687C148.115 52.0141 148.32 52.0823 148.501 52.1731C148.683 52.2867 148.842 52.423 148.956 52.6274C149.069 52.8091 149.137 53.059 149.137 53.3542C149.137 53.6495 149.092 53.8994 148.956 54.0811C148.842 54.2628 148.683 54.4218 148.501 54.5353C148.342 54.6262 148.138 54.6943 147.911 54.7398C147.729 54.7625 147.525 54.7852 147.32 54.7852ZM149.069 57.9878H149.455L147.547 54.8988L148.07 54.8533C148.297 54.8533 148.479 54.7852 148.66 54.6716C148.842 54.5808 148.978 54.4672 149.092 54.3309C149.205 54.1946 149.296 54.0356 149.364 53.8766C149.433 53.7177 149.455 53.5359 149.455 53.3542C149.455 53.1725 149.433 52.9681 149.364 52.7864C149.319 52.6047 149.228 52.4457 149.092 52.2867C148.956 52.1504 148.774 52.0141 148.547 51.9233C148.297 51.8097 147.979 51.7643 147.593 51.7643H145.503V57.9878H145.776V54.9442H147.32L149.069 57.9878ZM150.636 58.6465H148.706L146.957 55.6029H146.434V58.6465H144.844V51.1056H147.593C148.07 51.1056 148.479 51.1737 148.797 51.31C149.137 51.4463 149.387 51.628 149.592 51.8551C149.796 52.0823 149.932 52.3321 150 52.6047C150.069 52.8545 150.114 53.1044 150.114 53.3542C150.114 53.6041 150.069 53.8539 149.978 54.1038C149.887 54.3536 149.751 54.5808 149.569 54.7625C149.41 54.9442 149.205 55.1259 148.956 55.2622C148.842 55.3076 148.729 55.3757 148.615 55.3985L150.636 58.6465Z" fill="white"/>
<path d="M157.314 51.4236L154.293 58.3058H155.384L156.065 56.6023H159.336L160.017 58.3058H161.108L158.177 51.4236H157.337H157.314ZM157.678 52.6274L158.95 55.7846H156.36L157.655 52.6274H157.678Z" fill="white"/>
<path d="M156.86 55.4666H158.495L157.678 53.4678L156.86 55.4666ZM159.472 56.1253H155.906L157.473 52.3094H157.928L159.472 56.1253ZM160.222 57.9878H160.585L157.928 51.7643H157.519L154.793 57.9878H155.157L155.838 56.2843H159.54L160.222 57.9878ZM161.584 58.6465H159.79L159.109 56.943H156.292L155.611 58.6465H153.794L157.11 51.1056H158.382L161.607 58.6465H161.584Z" fill="white"/>
</g>
<defs>
<clipPath id="clip0_1_2">
<rect width="679" height="58.8055" fill="white"/>
</clipPath>
</defs>
</svg>
